<svg width="1440" height="263" viewBox="0 0 1440 263" fill="none" xmlns="http://www.w3.org/2000/svg">
  <g clip-path="url(#clip0_21_3339)">
    <rect width="1440" height="263" fill="#1E2635" />
    <path fill-rule="evenodd"
      clip-rule="evenodd"
      d="M559.478 59.2628C558.711 59.7737 557.945 60.0292 557.179 60.0292L557.051 60.1569C555.901 60.1569 554.752 59.646 553.986 58.6242C552.708 56.8361 553.092 54.5371 554.752 53.2599C600.987 18.7751 656.035 0.383165 713.893 0C716.064 0 717.725 1.66038 717.725 3.70393C717.852 5.87519 716.064 7.53557 714.021 7.53557C657.823 7.91874 604.308 25.7998 559.478 59.2628ZM563.297 82.8998C558.06 87.2424 557.294 95.0334 561.509 100.27C565.851 105.507 573.642 106.273 578.879 102.058C617.323 70.6386 665.857 53.2684 715.669 53.2684C765.48 53.2684 816.186 71.4049 855.141 104.229C857.44 106.145 860.25 107.167 863.059 107.167C866.508 107.167 870.084 105.634 872.511 102.824C876.853 97.5878 876.215 89.7968 871.106 85.4543C827.808 48.7982 772.505 28.6181 715.669 28.6181C658.833 28.6181 606.084 47.9041 563.297 82.8998ZM758.716 408.079C756.673 430.814 737.642 448.312 714.78 448.312H700.603H615.924L620.649 393.774H705.329L723.976 180.479H616.179H612.475H609.538H561.642L562.919 166.175C564.963 143.44 583.993 125.942 606.855 125.942H621.033H733.3H739.303C763.059 125.942 781.579 146.25 779.535 169.878L758.716 408.079ZM475.302 452.246C489.351 452.246 501.101 441.518 502.379 427.468L526.135 155.549C527.54 139.712 515.023 126.045 499.058 126.045C485.009 126.045 473.258 136.774 471.981 150.823L448.097 422.743C446.692 438.58 459.209 452.246 475.174 452.246H475.302ZM582.334 448.295H592.808L614.393 201.537H559.855L542.102 404.359C540.059 427.987 558.578 448.295 582.334 448.295ZM884.905 206.395C885.288 201.797 881.839 197.965 877.241 197.965H810.826C806.228 197.965 802.141 201.669 801.63 206.395C801.247 210.992 804.695 214.824 809.293 214.824H875.709C880.307 214.824 884.394 211.12 884.905 206.395ZM695.755 546C636.493 546 579.529 524.287 535.337 484.821H535.465C530.356 480.351 529.973 472.56 534.443 467.451C538.913 462.342 546.704 461.959 551.813 466.429C591.407 501.808 642.496 521.35 695.755 521.35C799.849 521.35 889.254 447.143 908.284 345.094C909.561 338.452 915.948 333.982 922.717 335.259C929.358 336.537 933.829 343.05 932.551 349.692C911.222 463.492 811.599 546 695.755 546ZM964.48 348.021C964.863 345.977 963.458 344.062 961.287 343.678C959.243 343.295 957.327 344.7 956.944 346.871C947.493 406.517 917.351 461.693 872.137 502.309C870.604 503.714 870.477 506.14 871.882 507.673C872.648 508.567 873.67 508.95 874.692 508.95C875.586 508.95 876.48 508.695 877.246 507.928C923.864 466.291 954.773 409.455 964.48 348.021ZM886.183 155.44H910.45L930.247 185.71L916.836 202.57L886.183 155.44ZM889.885 296.569H985.676C991.807 296.569 995.511 289.8 992.19 284.563L987.72 277.794L950.425 220.574L937.142 237.306L963.453 277.794H904.701L889.757 296.569H889.885ZM880.186 146.118L875.204 138.454V138.71C872.011 133.856 875.46 127.47 881.207 127.47H1001.01C1005.74 127.47 1008.29 132.834 1005.35 136.538L997.562 146.245L907.007 259.662L892.447 277.926L877.503 296.701H866.519C861.283 296.701 858.345 290.571 861.666 286.484L868.563 277.926L973.678 146.118H880.186Z"
      fill="url(#paint0_linear_21_3339)" />
  </g>
  <defs>
    <linearGradient id="paint0_linear_21_3339"
      x1="933.431"
      y1="0"
      x2="933.431"
      y2="254.5"
      gradientUnits="userSpaceOnUse">
      <stop stop-color="#34425C" />
      <stop offset="1" stop-color="#1E2635" />
    </linearGradient>
    <clipPath id="clip0_21_3339">
      <rect width="1440" height="263" fill="white" />
    </clipPath>
  </defs>
</svg>
