<svg width="330" height="430" viewBox="0 0 330 430" fill="none" xmlns="http://www.w3.org/2000/svg">
  <rect width="330" height="130" rx="19" fill="url(#paint0_linear_15_3314)" />
  <path d="M107.68 52.4C107.68 55.088 109.424 57.024 111.824 57.024C114.016 57.024 115.664 55.488 116.016 53.184H111.904V52.096H117.472V58H116.352L116.224 55.664C115.232 57.28 113.616 58.24 111.632 58.24C108.64 58.24 106.4 55.744 106.4 52.416C106.4 49.056 108.672 46.576 111.792 46.56C114.368 46.544 116.368 48.208 117.088 50.768H115.792C115.2 48.928 113.664 47.76 111.776 47.76C109.376 47.76 107.68 49.712 107.68 52.4ZM120.918 46.8V58H119.638V46.8H120.918ZM122.844 54.016C122.844 51.568 124.652 49.76 127.052 49.76C129.516 49.76 131.308 51.488 131.308 54.016C131.308 56.512 129.516 58.24 127.052 58.24C124.652 58.24 122.844 56.432 122.844 54.016ZM124.124 54C124.124 55.744 125.388 57.024 127.052 57.024C128.828 57.024 130.028 55.808 130.028 54C130.028 52.192 128.812 50.96 127.052 50.96C125.372 50.96 124.124 52.256 124.124 54ZM134.45 56.352L134.274 58H133.17V46.8H134.45V51.632C135.09 50.464 136.226 49.76 137.586 49.76C139.778 49.76 141.442 51.568 141.442 54.016C141.442 56.432 139.778 58.24 137.586 58.24C136.226 58.24 135.09 57.536 134.45 56.352ZM140.161 54C140.161 52.192 138.962 50.912 137.25 50.912C135.602 50.912 134.45 52.192 134.45 54C134.45 55.824 135.586 57.072 137.25 57.072C138.93 57.072 140.161 55.776 140.161 54ZM151.038 58H149.934L149.774 56.352C149.134 57.536 147.982 58.24 146.622 58.24C144.43 58.24 142.766 56.432 142.766 54.016C142.766 51.568 144.43 49.76 146.622 49.76C147.982 49.76 149.118 50.464 149.758 51.648L149.934 50H151.038V58ZM144.046 54C144.046 55.776 145.278 57.072 146.958 57.072C148.606 57.072 149.758 55.824 149.758 54C149.758 52.192 148.606 50.912 146.958 50.912C145.246 50.912 144.046 52.192 144.046 54ZM154.762 46.8V58H153.482V46.8H154.762ZM163.264 50H168.88V58H167.6V51.2H163.264V58H161.984V51.2H160.272V50H161.984C161.984 47.792 163.376 46.56 165.776 46.56V47.616C164.128 47.616 163.264 48.416 163.264 50ZM167.568 47.248C167.568 46.832 167.84 46.56 168.24 46.56C168.656 46.56 168.928 46.832 168.928 47.248C168.928 47.648 168.656 47.92 168.24 47.92C167.84 47.92 167.568 47.648 167.568 47.248ZM172.668 54.048V58H171.388V50H172.492L172.652 51.584C173.276 50.448 174.332 49.76 175.644 49.76C177.708 49.76 179.132 51.536 179.132 54.048V58H177.852V54.048C177.852 52.192 176.828 50.96 175.26 50.96C173.724 50.96 172.668 52.208 172.668 54.048ZM189.319 58H188.215L188.055 56.352C187.415 57.536 186.263 58.24 184.903 58.24C182.711 58.24 181.047 56.432 181.047 54.016C181.047 51.568 182.711 49.76 184.903 49.76C186.263 49.76 187.399 50.464 188.039 51.648L188.215 50H189.319V58ZM182.327 54C182.327 55.776 183.559 57.072 185.239 57.072C186.887 57.072 188.039 55.824 188.039 54C188.039 52.192 186.887 50.912 185.239 50.912C183.527 50.912 182.327 52.192 182.327 54ZM193.043 54.048V58H191.763V50H192.867L193.027 51.584C193.651 50.448 194.707 49.76 196.019 49.76C198.083 49.76 199.507 51.536 199.507 54.048V58H198.227V54.048C198.227 52.192 197.203 50.96 195.635 50.96C194.099 50.96 193.043 52.208 193.043 54.048ZM202.718 54C202.718 55.776 203.95 57.072 205.63 57.072C206.958 57.072 208.014 56.32 208.43 55.184H209.758C209.23 57.024 207.678 58.24 205.63 58.24C203.23 58.24 201.438 56.432 201.438 54.016C201.438 51.568 203.214 49.76 205.63 49.76C207.662 49.76 209.214 50.96 209.742 52.8H208.414C207.982 51.68 206.942 50.912 205.63 50.912C203.95 50.912 202.718 52.24 202.718 54ZM219.1 54.368H212.172C212.316 56.016 213.452 57.216 214.972 57.216C216.092 57.216 217.004 56.64 217.532 55.728H218.844C218.188 57.28 216.764 58.24 214.972 58.24C212.62 58.24 210.876 56.432 210.876 54.016C210.876 51.568 212.588 49.76 214.972 49.76C217.404 49.76 219.116 51.488 219.116 54.016C219.116 54.128 219.1 54.24 219.1 54.368ZM212.172 53.632H217.82C217.676 51.952 216.556 50.816 214.972 50.816C213.452 50.816 212.316 51.984 212.172 53.632ZM107.248 72H108.352L108.512 73.584C109.184 72.448 110.32 71.76 111.664 71.76C113.84 71.76 115.472 73.568 115.472 75.984C115.472 78.432 113.856 80.24 111.664 80.24C110.336 80.24 109.184 79.568 108.528 78.416V83.2H107.248V72ZM114.192 76C114.192 74.208 112.976 72.912 111.328 72.912C109.648 72.912 108.528 74.176 108.528 76C108.528 77.808 109.68 79.072 111.328 79.072C112.976 79.072 114.192 77.792 114.192 76ZM122.348 71.76V73.104C120.108 73.104 118.668 74.88 118.668 77.728V80H117.388V72H118.492L118.668 74.544C119.34 72.816 120.668 71.76 122.348 71.76ZM123.266 76.016C123.266 73.568 125.074 71.76 127.474 71.76C129.938 71.76 131.73 73.488 131.73 76.016C131.73 78.512 129.938 80.24 127.474 80.24C125.074 80.24 123.266 78.432 123.266 76.016ZM124.546 76C124.546 77.744 125.81 79.024 127.474 79.024C129.25 79.024 130.45 77.808 130.45 76C130.45 74.192 129.234 72.96 127.474 72.96C125.794 72.96 124.546 74.256 124.546 76ZM132.078 72H133.454L136.414 78.496L139.406 72H140.766L137.102 80H135.726L132.078 72ZM142.078 69.248C142.078 68.832 142.35 68.56 142.75 68.56C143.166 68.56 143.438 68.832 143.438 69.248C143.438 69.648 143.166 69.92 142.75 69.92C142.35 69.92 142.078 69.648 142.078 69.248ZM143.39 80H142.11V72H143.39V80ZM153.646 80H152.526L152.382 78.384C151.726 79.552 150.558 80.24 149.214 80.24C147.038 80.24 145.406 78.432 145.406 76.016C145.406 73.568 147.022 71.76 149.214 71.76C150.558 71.76 151.71 72.448 152.366 73.6V68.8H153.646V80ZM146.686 76C146.686 77.776 147.918 79.072 149.55 79.072C151.23 79.072 152.366 77.824 152.366 76C152.366 74.192 151.214 72.912 149.55 72.912C147.902 72.912 146.686 74.192 146.686 76ZM163.803 76.368H156.875C157.019 78.016 158.155 79.216 159.675 79.216C160.795 79.216 161.707 78.64 162.235 77.728H163.547C162.891 79.28 161.467 80.24 159.675 80.24C157.323 80.24 155.579 78.432 155.579 76.016C155.579 73.568 157.291 71.76 159.675 71.76C162.107 71.76 163.819 73.488 163.819 76.016C163.819 76.128 163.803 76.24 163.803 76.368ZM156.875 75.632H162.523C162.379 73.952 161.259 72.816 159.675 72.816C158.155 72.816 157.019 73.984 156.875 75.632ZM170.692 71.76V73.104C168.452 73.104 167.012 74.88 167.012 77.728V80H165.732V72H166.836L167.012 74.544C167.684 72.816 169.012 71.76 170.692 71.76Z"
    fill="white" />
  <circle cx="56" cy="65" r="30" fill="#9B42FC" />
  <path d="M71 65C71 56.72 64.28 50 56 50C47.72 50 41 56.72 41 65C41 73.28 47.72 80 56 80"
    stroke="white"
    stroke-width="1.5"
    stroke-linecap="round"
    stroke-linejoin="round" />
  <path d="M50.0004 51.5H51.5004C48.5754 60.26 48.5754 69.74 51.5004 78.5H50.0004"
    stroke="white"
    stroke-width="1.5"
    stroke-linecap="round"
    stroke-linejoin="round" />
  <path d="M60.5 51.5C61.955 55.88 62.69 60.44 62.69 65"
    stroke="white"
    stroke-width="1.5"
    stroke-linecap="round"
    stroke-linejoin="round" />
  <path d="M42.5 71V69.5C46.88 70.955 51.44 71.69 56 71.69"
    stroke="white"
    stroke-width="1.5"
    stroke-linecap="round"
    stroke-linejoin="round" />
  <path d="M42.5 60.5004C51.26 57.5754 60.74 57.5754 69.5 60.5004"
    stroke="white"
    stroke-width="1.5"
    stroke-linecap="round"
    stroke-linejoin="round" />
  <path d="M65.3 79.1C67.951 79.1 70.1 76.951 70.1 74.3C70.1 71.6491 67.951 69.5 65.3 69.5C62.649 69.5 60.5 71.6491 60.5 74.3C60.5 76.951 62.649 79.1 65.3 79.1Z"
    stroke="white"
    stroke-width="1.5"
    stroke-linecap="round"
    stroke-linejoin="round" />
  <path d="M71 80L69.5 78.5" stroke="white" stroke-width="1.5" stroke-linecap="round" stroke-linejoin="round" />
  <rect y="150" width="330" height="130" rx="19" fill="url(#paint1_linear_15_3314)" />
  <ellipse cx="56.5" cy="215" rx="30.5" ry="30" fill="#4F7CFF" />
  <path d="M58.4496 199.483L68.6531 204.895C69.8443 205.527 69.8443 207.331 68.6531 207.963L58.4496 213.374C57.5405 213.852 56.4747 213.852 55.5657 213.374L45.3621 207.963C44.171 207.331 44.171 205.527 45.3621 204.895L55.5657 199.483C56.4747 199.006 57.5405 199.006 58.4496 199.483Z"
    stroke="white"
    stroke-width="1.5"
    stroke-linecap="round"
    stroke-linejoin="round" />
  <path d="M43.8574 211.617L53.34 216.288C54.5155 216.874 55.2678 218.061 55.2678 219.356V228.174C55.2678 229.454 53.9042 230.271 52.7444 229.7L43.2618 225.029C42.0863 224.443 41.334 223.256 41.334 221.961V213.143C41.334 211.863 42.6976 211.046 43.8574 211.617Z"
    stroke="white"
    stroke-width="1.5"
    stroke-linecap="round"
    stroke-linejoin="round" />
  <path d="M70.1565 211.617L60.6739 216.288C59.4984 216.874 58.7461 218.061 58.7461 219.356V228.174C58.7461 229.454 60.1097 230.271 61.2695 229.7L70.7521 225.029C71.9276 224.443 72.6799 223.256 72.6799 221.961V213.143C72.6799 211.863 71.3163 211.046 70.1565 211.617Z"
    stroke="white"
    stroke-width="1.5"
    stroke-linecap="round"
    stroke-linejoin="round" />
  <path d="M105.776 197L110.944 185.8H112.336L117.488 197H116.128L114.72 193.944H108.576L107.168 197H105.776ZM109.12 192.776H114.176L111.648 187.304L109.12 192.776ZM126.006 197H124.886L124.742 195.384C124.086 196.552 122.918 197.24 121.574 197.24C119.398 197.24 117.766 195.432 117.766 193.016C117.766 190.568 119.382 188.76 121.574 188.76C122.918 188.76 124.07 189.448 124.726 190.6V185.8H126.006V197ZM119.046 193C119.046 194.776 120.278 196.072 121.91 196.072C123.59 196.072 124.726 194.824 124.726 193C124.726 191.192 123.574 189.912 121.91 189.912C120.262 189.912 119.046 191.192 119.046 193ZM127.25 189H128.626L131.586 195.496L134.578 189H135.938L132.274 197H130.898L127.25 189ZM144.6 197H143.496L143.336 195.352C142.696 196.536 141.544 197.24 140.184 197.24C137.992 197.24 136.328 195.432 136.328 193.016C136.328 190.568 137.992 188.76 140.184 188.76C141.544 188.76 142.68 189.464 143.32 190.648L143.496 189H144.6V197ZM137.608 193C137.608 194.776 138.84 196.072 140.52 196.072C142.168 196.072 143.32 194.824 143.32 193C143.32 191.192 142.168 189.912 140.52 189.912C138.808 189.912 137.608 191.192 137.608 193ZM148.325 193.048V197H147.045V189H148.149L148.309 190.584C148.933 189.448 149.989 188.76 151.301 188.76C153.365 188.76 154.789 190.536 154.789 193.048V197H153.509V193.048C153.509 191.192 152.485 189.96 150.917 189.96C149.381 189.96 148.325 191.208 148.325 193.048ZM157.999 193C157.999 194.776 159.231 196.072 160.911 196.072C162.239 196.072 163.295 195.32 163.711 194.184H165.039C164.511 196.024 162.959 197.24 160.911 197.24C158.511 197.24 156.719 195.432 156.719 193.016C156.719 190.568 158.495 188.76 160.911 188.76C162.943 188.76 164.495 189.96 165.023 191.8H163.695C163.263 190.68 162.223 189.912 160.911 189.912C159.231 189.912 157.999 191.24 157.999 193ZM174.381 193.368H167.453C167.597 195.016 168.733 196.216 170.253 196.216C171.373 196.216 172.285 195.64 172.813 194.728H174.125C173.469 196.28 172.045 197.24 170.253 197.24C167.901 197.24 166.157 195.432 166.157 193.016C166.157 190.568 167.869 188.76 170.253 188.76C172.685 188.76 174.397 190.488 174.397 193.016C174.397 193.128 174.381 193.24 174.381 193.368ZM167.453 192.632H173.101C172.957 190.952 171.837 189.816 170.253 189.816C168.733 189.816 167.597 190.984 167.453 192.632ZM183.99 197H182.87L182.726 195.384C182.07 196.552 180.902 197.24 179.558 197.24C177.382 197.24 175.75 195.432 175.75 193.016C175.75 190.568 177.366 188.76 179.558 188.76C180.902 188.76 182.054 189.448 182.71 190.6V185.8H183.99V197ZM177.03 193C177.03 194.776 178.262 196.072 179.894 196.072C181.574 196.072 182.71 194.824 182.71 193C182.71 191.192 181.558 189.912 179.894 189.912C178.246 189.912 177.03 191.192 177.03 193ZM109.616 212.2V215.256C109.616 217.208 110.368 218.024 112.048 218.024V219.24C109.424 219.24 108.336 217.896 108.336 215.256V212.2H106.656V211.656L109.088 209.208H109.616V211H112.048V212.2H109.616ZM121.631 215.368H114.703C114.847 217.016 115.983 218.216 117.503 218.216C118.623 218.216 119.535 217.64 120.063 216.728H121.375C120.719 218.28 119.295 219.24 117.503 219.24C115.151 219.24 113.407 217.432 113.407 215.016C113.407 212.568 115.119 210.76 117.503 210.76C119.935 210.76 121.647 212.488 121.647 215.016C121.647 215.128 121.631 215.24 121.631 215.368ZM114.703 214.632H120.351C120.207 212.952 119.087 211.816 117.503 211.816C115.983 211.816 114.847 212.984 114.703 214.632ZM124.296 215C124.296 216.776 125.528 218.072 127.208 218.072C128.536 218.072 129.592 217.32 130.008 216.184H131.336C130.808 218.024 129.256 219.24 127.208 219.24C124.808 219.24 123.016 217.432 123.016 215.016C123.016 212.568 124.792 210.76 127.208 210.76C129.24 210.76 130.792 211.96 131.32 213.8H129.992C129.56 212.68 128.52 211.912 127.208 211.912C125.528 211.912 124.296 213.24 124.296 215ZM134.497 215.144V219H133.217V207.8H134.497V212.584C135.121 211.464 136.177 210.76 137.473 210.76C139.521 210.76 140.945 212.568 140.945 215.144V219H139.665V215.144C139.665 213.224 138.657 211.96 137.089 211.96C135.553 211.96 134.497 213.256 134.497 215.144ZM144.7 215.048V219H143.42V211H144.524L144.684 212.584C145.308 211.448 146.364 210.76 147.676 210.76C149.74 210.76 151.164 212.536 151.164 215.048V219H149.884V215.048C149.884 213.192 148.86 211.96 147.292 211.96C145.756 211.96 144.7 213.208 144.7 215.048ZM153.094 215.016C153.094 212.568 154.902 210.76 157.302 210.76C159.766 210.76 161.558 212.488 161.558 215.016C161.558 217.512 159.766 219.24 157.302 219.24C154.902 219.24 153.094 217.432 153.094 215.016ZM154.374 215C154.374 216.744 155.638 218.024 157.302 218.024C159.078 218.024 160.278 216.808 160.278 215C160.278 213.192 159.062 211.96 157.302 211.96C155.622 211.96 154.374 213.256 154.374 215ZM164.7 207.8V219H163.42V207.8H164.7ZM166.626 215.016C166.626 212.568 168.434 210.76 170.834 210.76C173.298 210.76 175.09 212.488 175.09 215.016C175.09 217.512 173.298 219.24 170.834 219.24C168.434 219.24 166.626 217.432 166.626 215.016ZM167.906 215C167.906 216.744 169.17 218.024 170.834 218.024C172.61 218.024 173.81 216.808 173.81 215C173.81 213.192 172.594 211.96 170.834 211.96C169.154 211.96 167.906 213.256 167.906 215ZM183.351 218.792V217.288C182.695 218.424 181.543 219.112 180.199 219.112C178.007 219.112 176.391 217.304 176.391 214.936C176.391 212.536 178.007 210.76 180.199 210.76C181.559 210.76 182.711 211.432 183.367 212.584L183.511 211H184.631V218.792C184.631 221.256 182.983 223.032 180.631 223.032C178.663 223.032 177.143 221.816 176.663 219.96H177.927C178.359 221.128 179.367 221.848 180.631 221.848C182.231 221.848 183.351 220.6 183.351 218.792ZM177.671 214.936C177.671 216.68 178.887 217.928 180.535 217.928C182.215 217.928 183.351 216.696 183.351 214.936C183.351 213.16 182.183 211.912 180.535 211.912C178.871 211.912 177.671 213.192 177.671 214.936ZM190.915 222.152H189.571L190.659 219H188.595L185.875 211H187.187L189.475 217.672H191.107L193.395 211H194.691L190.915 222.152ZM113.488 238.872C113.488 240.216 112.192 241.24 110.336 241.24C108.304 241.24 106.88 240.376 106.688 238.744H107.904C108.08 239.736 108.912 240.264 110.352 240.264C111.44 240.264 112.272 239.656 112.272 238.888C112.272 236.52 106.944 238.328 106.944 235.112C106.944 233.816 108.208 232.76 110.064 232.76C112.032 232.76 113.28 233.704 113.408 235.288H112.224C112.16 234.408 111.472 233.72 110.048 233.72C109.024 233.72 108.176 234.328 108.176 235.096C108.176 237.384 113.488 235.448 113.488 238.872ZM114.688 237.016C114.688 234.568 116.496 232.76 118.896 232.76C121.36 232.76 123.152 234.488 123.152 237.016C123.152 239.512 121.36 241.24 118.896 241.24C116.496 241.24 114.688 239.432 114.688 237.016ZM115.968 237C115.968 238.744 117.232 240.024 118.896 240.024C120.672 240.024 121.872 238.808 121.872 237C121.872 235.192 120.656 233.96 118.896 233.96C117.216 233.96 115.968 235.256 115.968 237ZM126.293 229.8V241H125.013V229.8H126.293ZM135.227 236.952V233H136.507V241H135.403L135.243 239.416C134.619 240.536 133.531 241.24 132.235 241.24C130.203 241.24 128.763 239.448 128.763 236.952V233H130.043V236.952C130.043 238.792 131.067 240.024 132.619 240.024C134.171 240.024 135.227 238.776 135.227 236.952ZM141.366 234.2V237.256C141.366 239.208 142.118 240.024 143.798 240.024V241.24C141.174 241.24 140.086 239.896 140.086 237.256V234.2H138.406V233.656L140.838 231.208H141.366V233H143.798V234.2H141.366ZM145.843 230.248C145.843 229.832 146.115 229.56 146.515 229.56C146.931 229.56 147.203 229.832 147.203 230.248C147.203 230.648 146.931 230.92 146.515 230.92C146.115 230.92 145.843 230.648 145.843 230.248ZM147.155 241H145.875V233H147.155V241ZM149.188 237.016C149.188 234.568 150.996 232.76 153.396 232.76C155.86 232.76 157.652 234.488 157.652 237.016C157.652 239.512 155.86 241.24 153.396 241.24C150.996 241.24 149.188 239.432 149.188 237.016ZM150.468 237C150.468 238.744 151.732 240.024 153.396 240.024C155.172 240.024 156.372 238.808 156.372 237C156.372 235.192 155.156 233.96 153.396 233.96C151.716 233.96 150.468 235.256 150.468 237ZM160.793 237.048V241H159.513V233H160.617L160.777 234.584C161.401 233.448 162.457 232.76 163.769 232.76C165.833 232.76 167.257 234.536 167.257 237.048V241H165.977V237.048C165.977 235.192 164.953 233.96 163.385 233.96C161.849 233.96 160.793 235.208 160.793 237.048ZM175.988 238.872C175.988 240.216 174.692 241.24 172.836 241.24C170.804 241.24 169.38 240.376 169.188 238.744H170.404C170.58 239.736 171.412 240.264 172.852 240.264C173.94 240.264 174.772 239.656 174.772 238.888C174.772 236.52 169.444 238.328 169.444 235.112C169.444 233.816 170.708 232.76 172.564 232.76C174.532 232.76 175.78 233.704 175.908 235.288H174.724C174.66 234.408 173.972 233.72 172.548 233.72C171.524 233.72 170.676 234.328 170.676 235.096C170.676 237.384 175.988 235.448 175.988 238.872Z"
    fill="white" />
  <rect y="300" width="330" height="130" rx="19" fill="url(#paint2_linear_15_3314)" />
  <circle cx="56" cy="365" r="30" fill="#7DF137" />
  <path d="M70.6654 370.293C70.6654 375.453 66.492 379.626 61.332 379.626L62.732 377.293"
    stroke="#212A3B"
    stroke-width="1.5"
    stroke-linecap="round"
    stroke-linejoin="round" />
  <path d="M41.332 359.626C41.332 354.466 45.5054 350.293 50.6654 350.293L49.2654 352.626"
    stroke="#212A3B"
    stroke-width="1.5"
    stroke-linecap="round"
    stroke-linejoin="round" />
  <path d="M48.8281 366.428H52.5748C53.4015 366.428 54.0815 367.174 54.0815 367.934C54.0815 368.761 53.4148 369.441 52.5748 369.441H48.8281V366.428Z"
    stroke="#212A3B"
    stroke-width="1.5"
    stroke-miterlimit="10"
    stroke-linecap="round"
    stroke-linejoin="round" />
  <path d="M48.8281 369.439H53.1215C54.0681 369.439 54.8415 370.106 54.8415 370.946C54.8415 371.773 54.0681 372.453 53.1215 372.453H48.8281V369.439Z"
    stroke="#212A3B"
    stroke-width="1.5"
    stroke-miterlimit="10"
    stroke-linecap="round"
    stroke-linejoin="round" />
  <path d="M51.2285 372.439V373.933"
    stroke="#212A3B"
    stroke-width="1.5"
    stroke-miterlimit="10"
    stroke-linecap="round"
    stroke-linejoin="round" />
  <path d="M51.2285 364.934V366.427"
    stroke="#212A3B"
    stroke-width="1.5"
    stroke-miterlimit="10"
    stroke-linecap="round"
    stroke-linejoin="round" />
  <path d="M59.801 369.442C59.801 373.988 56.121 377.668 51.5743 377.668C47.0277 377.668 43.3477 373.988 43.3477 369.442C43.3477 364.895 47.0277 361.215 51.5743 361.215C51.7877 361.215 51.9877 361.228 52.2143 361.242C56.2543 361.548 59.481 364.775 59.7877 368.815C59.7877 369.015 59.801 369.215 59.801 369.442Z"
    stroke="#212A3B"
    stroke-width="1.5"
    stroke-miterlimit="10"
    stroke-linecap="round"
    stroke-linejoin="round" />
  <path d="M68.6682 360.561C68.6682 365.107 64.9882 368.787 60.4415 368.787H59.7882C59.4815 364.747 56.2548 361.521 52.2148 361.214V360.561C52.2148 356.014 55.8948 352.334 60.4415 352.334C64.9882 352.334 68.6682 356.014 68.6682 360.561Z"
    stroke="#212A3B"
    stroke-width="1.5"
    stroke-miterlimit="10"
    stroke-linecap="round"
    stroke-linejoin="round" />
  <path d="M107.232 347V335.8H108.512V345.784H114.736V347H107.232ZM117.265 336.248C117.265 335.832 117.537 335.56 117.937 335.56C118.353 335.56 118.625 335.832 118.625 336.248C118.625 336.648 118.353 336.92 117.937 336.92C117.537 336.92 117.265 336.648 117.265 336.248ZM118.577 347H117.297V339H118.577V347ZM121.89 343C121.89 344.776 123.122 346.072 124.802 346.072C126.13 346.072 127.186 345.32 127.602 344.184H128.93C128.402 346.024 126.85 347.24 124.802 347.24C122.402 347.24 120.61 345.432 120.61 343.016C120.61 340.568 122.386 338.76 124.802 338.76C126.834 338.76 128.386 339.96 128.914 341.8H127.586C127.154 340.68 126.114 339.912 124.802 339.912C123.122 339.912 121.89 341.24 121.89 343ZM138.271 343.368H131.343C131.487 345.016 132.623 346.216 134.143 346.216C135.263 346.216 136.175 345.64 136.703 344.728H138.015C137.359 346.28 135.935 347.24 134.143 347.24C131.791 347.24 130.047 345.432 130.047 343.016C130.047 340.568 131.759 338.76 134.143 338.76C136.575 338.76 138.287 340.488 138.287 343.016C138.287 343.128 138.271 343.24 138.271 343.368ZM131.343 342.632H136.991C136.847 340.952 135.727 339.816 134.143 339.816C132.623 339.816 131.487 340.984 131.343 342.632ZM141.481 343.048V347H140.201V339H141.305L141.465 340.584C142.089 339.448 143.145 338.76 144.457 338.76C146.521 338.76 147.945 340.536 147.945 343.048V347H146.665V343.048C146.665 341.192 145.641 339.96 144.073 339.96C142.537 339.96 141.481 341.208 141.481 343.048ZM156.676 344.872C156.676 346.216 155.38 347.24 153.524 347.24C151.492 347.24 150.068 346.376 149.876 344.744H151.092C151.268 345.736 152.1 346.264 153.54 346.264C154.628 346.264 155.46 345.656 155.46 344.888C155.46 342.52 150.132 344.328 150.132 341.112C150.132 339.816 151.396 338.76 153.252 338.76C155.22 338.76 156.468 339.704 156.596 341.288H155.412C155.348 340.408 154.66 339.72 153.236 339.72C152.212 339.72 151.364 340.328 151.364 341.096C151.364 343.384 156.676 341.448 156.676 344.872ZM166.1 343.368H159.172C159.316 345.016 160.452 346.216 161.972 346.216C163.092 346.216 164.004 345.64 164.532 344.728H165.844C165.188 346.28 163.764 347.24 161.972 347.24C159.62 347.24 157.876 345.432 157.876 343.016C157.876 340.568 159.588 338.76 161.972 338.76C164.404 338.76 166.116 340.488 166.116 343.016C166.116 343.128 166.1 343.24 166.1 343.368ZM159.172 342.632H164.82C164.676 340.952 163.556 339.816 161.972 339.816C160.452 339.816 159.316 340.984 159.172 342.632ZM175.709 347H174.589L174.445 345.384C173.789 346.552 172.621 347.24 171.277 347.24C169.101 347.24 167.469 345.432 167.469 343.016C167.469 340.568 169.085 338.76 171.277 338.76C172.621 338.76 173.773 339.448 174.429 340.6V335.8H175.709V347ZM168.749 343C168.749 344.776 169.981 346.072 171.613 346.072C173.293 346.072 174.429 344.824 174.429 343C174.429 341.192 173.277 339.912 171.613 339.912C169.965 339.912 168.749 341.192 168.749 343ZM107.968 365C107.968 366.776 109.2 368.072 110.88 368.072C112.208 368.072 113.264 367.32 113.68 366.184H115.008C114.48 368.024 112.928 369.24 110.88 369.24C108.48 369.24 106.688 367.432 106.688 365.016C106.688 362.568 108.464 360.76 110.88 360.76C112.912 360.76 114.464 361.96 114.992 363.8H113.664C113.232 362.68 112.192 361.912 110.88 361.912C109.2 361.912 107.968 363.24 107.968 365ZM121.833 360.76V362.104C119.593 362.104 118.153 363.88 118.153 366.728V369H116.873V361H117.977L118.153 363.544C118.825 361.816 120.153 360.76 121.833 360.76ZM127.29 372.152H125.946L127.034 369H124.97L122.25 361H123.562L125.85 367.672H127.482L129.77 361H131.066L127.29 372.152ZM132.342 361H133.446L133.606 362.584C134.278 361.448 135.414 360.76 136.758 360.76C138.934 360.76 140.566 362.568 140.566 364.984C140.566 367.432 138.95 369.24 136.758 369.24C135.43 369.24 134.278 368.568 133.622 367.416V372.2H132.342V361ZM139.286 365C139.286 363.208 138.07 361.912 136.422 361.912C134.742 361.912 133.622 363.176 133.622 365C133.622 366.808 134.774 368.072 136.422 368.072C138.07 368.072 139.286 366.792 139.286 365ZM144.804 362.2V365.256C144.804 367.208 145.556 368.024 147.236 368.024V369.24C144.612 369.24 143.524 367.896 143.524 365.256V362.2H141.844V361.656L144.276 359.208H144.804V361H147.236V362.2H144.804ZM148.594 365.016C148.594 362.568 150.402 360.76 152.802 360.76C155.266 360.76 157.058 362.488 157.058 365.016C157.058 367.512 155.266 369.24 152.802 369.24C150.402 369.24 148.594 367.432 148.594 365.016ZM149.874 365C149.874 366.744 151.138 368.024 152.802 368.024C154.578 368.024 155.778 366.808 155.778 365C155.778 363.192 154.562 361.96 152.802 361.96C151.122 361.96 149.874 363.256 149.874 365ZM159.656 365C159.656 366.776 160.888 368.072 162.568 368.072C163.896 368.072 164.952 367.32 165.368 366.184H166.696C166.168 368.024 164.616 369.24 162.568 369.24C160.168 369.24 158.376 367.432 158.376 365.016C158.376 362.568 160.152 360.76 162.568 360.76C164.6 360.76 166.152 361.96 166.68 363.8H165.352C164.92 362.68 163.88 361.912 162.568 361.912C160.888 361.912 159.656 363.24 159.656 365ZM175.024 364.952V361H176.304V369H175.2L175.04 367.416C174.416 368.536 173.328 369.24 172.032 369.24C170 369.24 168.56 367.448 168.56 364.952V361H169.84V364.952C169.84 366.792 170.864 368.024 172.416 368.024C173.968 368.024 175.024 366.776 175.024 364.952ZM183.739 360.76V362.104C181.499 362.104 180.059 363.88 180.059 366.728V369H178.779V361H179.883L180.059 363.544C180.731 361.816 182.059 360.76 183.739 360.76ZM190.348 360.76V362.104C188.108 362.104 186.668 363.88 186.668 366.728V369H185.388V361H186.492L186.668 363.544C187.34 361.816 188.668 360.76 190.348 360.76ZM199.49 365.368H192.562C192.706 367.016 193.842 368.216 195.362 368.216C196.482 368.216 197.394 367.64 197.922 366.728H199.234C198.578 368.28 197.154 369.24 195.362 369.24C193.01 369.24 191.266 367.432 191.266 365.016C191.266 362.568 192.978 360.76 195.362 360.76C197.794 360.76 199.506 362.488 199.506 365.016C199.506 365.128 199.49 365.24 199.49 365.368ZM192.562 364.632H198.21C198.066 362.952 196.946 361.816 195.362 361.816C193.842 361.816 192.706 362.984 192.562 364.632ZM202.7 365.048V369H201.42V361H202.524L202.684 362.584C203.308 361.448 204.364 360.76 205.676 360.76C207.74 360.76 209.164 362.536 209.164 365.048V369H207.884V365.048C207.884 363.192 206.86 361.96 205.292 361.96C203.756 361.96 202.7 363.208 202.7 365.048ZM212.374 365C212.374 366.776 213.606 368.072 215.286 368.072C216.614 368.072 217.67 367.32 218.086 366.184H219.414C218.886 368.024 217.334 369.24 215.286 369.24C212.886 369.24 211.094 367.432 211.094 365.016C211.094 362.568 212.87 360.76 215.286 360.76C217.318 360.76 218.87 361.96 219.398 363.8H218.07C217.638 362.68 216.598 361.912 215.286 361.912C213.606 361.912 212.374 363.24 212.374 365ZM225.087 372.152H223.743L224.831 369H222.767L220.047 361H221.359L223.647 367.672H225.279L227.567 361H228.863L225.087 372.152ZM114.912 387.368H107.984C108.128 389.016 109.264 390.216 110.784 390.216C111.904 390.216 112.816 389.64 113.344 388.728H114.656C114 390.28 112.576 391.24 110.784 391.24C108.432 391.24 106.688 389.432 106.688 387.016C106.688 384.568 108.4 382.76 110.784 382.76C113.216 382.76 114.928 384.488 114.928 387.016C114.928 387.128 114.912 387.24 114.912 387.368ZM107.984 386.632H113.632C113.488 384.952 112.368 383.816 110.784 383.816C109.264 383.816 108.128 384.984 107.984 386.632ZM120.158 386.952L123.374 391H121.854L119.406 387.912L116.958 391H115.422L118.638 386.952L115.486 383H117.022L119.406 385.992L121.774 383H123.294L120.158 386.952ZM125.093 387C125.093 388.776 126.325 390.072 128.005 390.072C129.333 390.072 130.389 389.32 130.805 388.184H132.133C131.605 390.024 130.053 391.24 128.005 391.24C125.605 391.24 123.813 389.432 123.813 387.016C123.813 384.568 125.589 382.76 128.005 382.76C130.037 382.76 131.589 383.96 132.117 385.8H130.789C130.357 384.68 129.317 383.912 128.005 383.912C126.325 383.912 125.093 385.24 125.093 387ZM135.294 387.144V391H134.014V379.8H135.294V384.584C135.918 383.464 136.974 382.76 138.27 382.76C140.318 382.76 141.742 384.568 141.742 387.144V391H140.462V387.144C140.462 385.224 139.454 383.96 137.886 383.96C136.35 383.96 135.294 385.256 135.294 387.144ZM151.928 391H150.824L150.664 389.352C150.024 390.536 148.872 391.24 147.512 391.24C145.32 391.24 143.656 389.432 143.656 387.016C143.656 384.568 145.32 382.76 147.512 382.76C148.872 382.76 150.008 383.464 150.648 384.648L150.824 383H151.928V391ZM144.936 387C144.936 388.776 146.168 390.072 147.848 390.072C149.496 390.072 150.648 388.824 150.648 387C150.648 385.192 149.496 383.912 147.848 383.912C146.136 383.912 144.936 385.192 144.936 387ZM155.653 387.048V391H154.373V383H155.477L155.637 384.584C156.261 383.448 157.317 382.76 158.629 382.76C160.693 382.76 162.117 384.536 162.117 387.048V391H160.837V387.048C160.837 385.192 159.813 383.96 158.245 383.96C156.709 383.96 155.653 385.208 155.653 387.048ZM170.991 390.792V389.288C170.335 390.424 169.183 391.112 167.839 391.112C165.647 391.112 164.031 389.304 164.031 386.936C164.031 384.536 165.647 382.76 167.839 382.76C169.199 382.76 170.351 383.432 171.007 384.584L171.151 383H172.271V390.792C172.271 393.256 170.623 395.032 168.271 395.032C166.303 395.032 164.783 393.816 164.303 391.96H165.567C165.999 393.128 167.007 393.848 168.271 393.848C169.871 393.848 170.991 392.6 170.991 390.792ZM165.311 386.936C165.311 388.68 166.527 389.928 168.175 389.928C169.855 389.928 170.991 388.696 170.991 386.936C170.991 385.16 169.823 383.912 168.175 383.912C166.511 383.912 165.311 385.192 165.311 386.936ZM182.428 387.368H175.5C175.644 389.016 176.78 390.216 178.3 390.216C179.42 390.216 180.332 389.64 180.86 388.728H182.172C181.516 390.28 180.092 391.24 178.3 391.24C175.948 391.24 174.204 389.432 174.204 387.016C174.204 384.568 175.916 382.76 178.3 382.76C180.732 382.76 182.444 384.488 182.444 387.016C182.444 387.128 182.428 387.24 182.428 387.368ZM175.5 386.632H181.148C181.004 384.952 179.884 383.816 178.3 383.816C176.78 383.816 175.644 384.984 175.5 386.632Z"
    fill="white" />
  <defs>
    <linearGradient id="paint0_linear_15_3314" x1="165" y1="0" x2="165" y2="130" gradientUnits="userSpaceOnUse">
      <stop stop-color="#1E2635" />
      <stop offset="1" stop-color="#3F4C6F" />
    </linearGradient>
    <linearGradient id="paint1_linear_15_3314" x1="165" y1="150" x2="165" y2="280" gradientUnits="userSpaceOnUse">
      <stop stop-color="#1E2635" />
      <stop offset="1" stop-color="#3F4C6F" />
    </linearGradient>
    <linearGradient id="paint2_linear_15_3314" x1="165" y1="300" x2="165" y2="430" gradientUnits="userSpaceOnUse">
      <stop stop-color="#1E2635" />
      <stop offset="1" stop-color="#3F4C6F" />
    </linearGradient>
  </defs>
</svg>
