<svg width="548" height="333" viewBox="0 0 548 333" fill="none" xmlns="http://www.w3.org/2000/svg">
  <rect y="116" width="172" height="217" rx="19" fill="url(#paint0_linear_13_3158)" />
  <rect x="188" width="172" height="217" rx="19" fill="url(#paint1_linear_13_3158)" />
  <rect x="376" y="92" width="172" height="217" rx="19" fill="url(#paint2_linear_13_3158)" />
  <path d="M23.776 254L28.944 242.8H30.336L35.488 254H34.128L32.72 250.944H26.576L25.168 254H23.776ZM27.12 249.776H32.176L29.648 244.304L27.12 249.776ZM44.0058 254H42.8858L42.7418 252.384C42.0858 253.552 40.9178 254.24 39.5738 254.24C37.3978 254.24 35.7658 252.432 35.7658 250.016C35.7658 247.568 37.3818 245.76 39.5738 245.76C40.9178 245.76 42.0698 246.448 42.7258 247.6V242.8H44.0058V254ZM37.0458 250C37.0458 251.776 38.2778 253.072 39.9098 253.072C41.5898 253.072 42.7258 251.824 42.7258 250C42.7258 248.192 41.5738 246.912 39.9098 246.912C38.2618 246.912 37.0458 248.192 37.0458 250ZM45.25 246H46.626L49.586 252.496L52.578 246H53.938L50.274 254H48.898L45.25 246ZM62.6003 254H61.4963L61.3363 252.352C60.6963 253.536 59.5443 254.24 58.1843 254.24C55.9923 254.24 54.3283 252.432 54.3283 250.016C54.3283 247.568 55.9923 245.76 58.1843 245.76C59.5443 245.76 60.6803 246.464 61.3203 247.648L61.4963 246H62.6003V254ZM55.6083 250C55.6083 251.776 56.8403 253.072 58.5203 253.072C60.1683 253.072 61.3203 251.824 61.3203 250C61.3203 248.192 60.1683 246.912 58.5203 246.912C56.8083 246.912 55.6083 248.192 55.6083 250ZM66.3245 250.048V254H65.0445V246H66.1485L66.3085 247.584C66.9325 246.448 67.9885 245.76 69.3005 245.76C71.3645 245.76 72.7885 247.536 72.7885 250.048V254H71.5085V250.048C71.5085 248.192 70.4845 246.96 68.9165 246.96C67.3805 246.96 66.3245 248.208 66.3245 250.048ZM75.9993 250C75.9993 251.776 77.2313 253.072 78.9113 253.072C80.2393 253.072 81.2953 252.32 81.7113 251.184H83.0393C82.5113 253.024 80.9593 254.24 78.9113 254.24C76.5113 254.24 74.7193 252.432 74.7193 250.016C74.7193 247.568 76.4953 245.76 78.9113 245.76C80.9433 245.76 82.4953 246.96 83.0233 248.8H81.6953C81.2633 247.68 80.2233 246.912 78.9113 246.912C77.2313 246.912 75.9993 248.24 75.9993 250ZM92.3808 250.368H85.4528C85.5968 252.016 86.7328 253.216 88.2528 253.216C89.3728 253.216 90.2848 252.64 90.8128 251.728H92.1248C91.4688 253.28 90.0448 254.24 88.2528 254.24C85.9008 254.24 84.1568 252.432 84.1568 250.016C84.1568 247.568 85.8688 245.76 88.2528 245.76C90.6848 245.76 92.3968 247.488 92.3968 250.016C92.3968 250.128 92.3808 250.24 92.3808 250.368ZM85.4528 249.632H91.1008C90.9568 247.952 89.8368 246.816 88.2528 246.816C86.7328 246.816 85.5968 247.984 85.4528 249.632ZM101.99 254H100.87L100.726 252.384C100.07 253.552 98.9021 254.24 97.5581 254.24C95.3821 254.24 93.7501 252.432 93.7501 250.016C93.7501 247.568 95.3661 245.76 97.5581 245.76C98.9021 245.76 100.054 246.448 100.71 247.6V242.8H101.99V254ZM95.0301 250C95.0301 251.776 96.2621 253.072 97.8941 253.072C99.5741 253.072 100.71 251.824 100.71 250C100.71 248.192 99.5581 246.912 97.8941 246.912C96.2461 246.912 95.0301 248.192 95.0301 250ZM27.616 269.2V272.256C27.616 274.208 28.368 275.024 30.048 275.024V276.24C27.424 276.24 26.336 274.896 26.336 272.256V269.2H24.656V268.656L27.088 266.208H27.616V268H30.048V269.2H27.616ZM39.6308 272.368H32.7028C32.8468 274.016 33.9828 275.216 35.5028 275.216C36.6228 275.216 37.5348 274.64 38.0628 273.728H39.3748C38.7188 275.28 37.2948 276.24 35.5028 276.24C33.1508 276.24 31.4068 274.432 31.4068 272.016C31.4068 269.568 33.1188 267.76 35.5028 267.76C37.9348 267.76 39.6468 269.488 39.6468 272.016C39.6468 272.128 39.6308 272.24 39.6308 272.368ZM32.7028 271.632H38.3508C38.2068 269.952 37.0868 268.816 35.5028 268.816C33.9828 268.816 32.8468 269.984 32.7028 271.632ZM42.2961 272C42.2961 273.776 43.5281 275.072 45.2081 275.072C46.5361 275.072 47.5921 274.32 48.0081 273.184H49.3361C48.8081 275.024 47.2561 276.24 45.2081 276.24C42.8081 276.24 41.0161 274.432 41.0161 272.016C41.0161 269.568 42.7921 267.76 45.2081 267.76C47.2401 267.76 48.7921 268.96 49.3201 270.8H47.9921C47.5601 269.68 46.5201 268.912 45.2081 268.912C43.5281 268.912 42.2961 270.24 42.2961 272ZM52.4968 272.144V276H51.2168V264.8H52.4968V269.584C53.1208 268.464 54.1768 267.76 55.4728 267.76C57.5208 267.76 58.9448 269.568 58.9448 272.144V276H57.6648V272.144C57.6648 270.224 56.6568 268.96 55.0888 268.96C53.5528 268.96 52.4968 270.256 52.4968 272.144ZM62.6995 272.048V276H61.4195V268H62.5235L62.6835 269.584C63.3075 268.448 64.3635 267.76 65.6755 267.76C67.7395 267.76 69.1635 269.536 69.1635 272.048V276H67.8835V272.048C67.8835 270.192 66.8595 268.96 65.2915 268.96C63.7555 268.96 62.6995 270.208 62.6995 272.048ZM71.0943 272.016C71.0943 269.568 72.9023 267.76 75.3023 267.76C77.7663 267.76 79.5583 269.488 79.5583 272.016C79.5583 274.512 77.7663 276.24 75.3023 276.24C72.9023 276.24 71.0943 274.432 71.0943 272.016ZM72.3743 272C72.3743 273.744 73.6383 275.024 75.3023 275.024C77.0783 275.024 78.2783 273.808 78.2783 272C78.2783 270.192 77.0623 268.96 75.3023 268.96C73.6223 268.96 72.3743 270.256 72.3743 272ZM82.6995 264.8V276H81.4195V264.8H82.6995ZM84.6255 272.016C84.6255 269.568 86.4335 267.76 88.8335 267.76C91.2975 267.76 93.0895 269.488 93.0895 272.016C93.0895 274.512 91.2975 276.24 88.8335 276.24C86.4335 276.24 84.6255 274.432 84.6255 272.016ZM85.9055 272C85.9055 273.744 87.1695 275.024 88.8335 275.024C90.6095 275.024 91.8095 273.808 91.8095 272C91.8095 270.192 90.5935 268.96 88.8335 268.96C87.1535 268.96 85.9055 270.256 85.9055 272ZM101.351 275.792V274.288C100.695 275.424 99.5428 276.112 98.1988 276.112C96.0068 276.112 94.3908 274.304 94.3908 271.936C94.3908 269.536 96.0068 267.76 98.1988 267.76C99.5588 267.76 100.711 268.432 101.367 269.584L101.511 268H102.631V275.792C102.631 278.256 100.983 280.032 98.6308 280.032C96.6628 280.032 95.1428 278.816 94.6628 276.96H95.9268C96.3588 278.128 97.3668 278.848 98.6308 278.848C100.231 278.848 101.351 277.6 101.351 275.792ZM95.6708 271.936C95.6708 273.68 96.8868 274.928 98.5348 274.928C100.215 274.928 101.351 273.696 101.351 271.936C101.351 270.16 100.183 268.912 98.5348 268.912C96.8708 268.912 95.6708 270.192 95.6708 271.936ZM108.915 279.152H107.571L108.659 276H106.595L103.875 268H105.187L107.475 274.672H109.107L111.395 268H112.691L108.915 279.152ZM31.488 295.872C31.488 297.216 30.192 298.24 28.336 298.24C26.304 298.24 24.88 297.376 24.688 295.744H25.904C26.08 296.736 26.912 297.264 28.352 297.264C29.44 297.264 30.272 296.656 30.272 295.888C30.272 293.52 24.944 295.328 24.944 292.112C24.944 290.816 26.208 289.76 28.064 289.76C30.032 289.76 31.28 290.704 31.408 292.288H30.224C30.16 291.408 29.472 290.72 28.048 290.72C27.024 290.72 26.176 291.328 26.176 292.096C26.176 294.384 31.488 292.448 31.488 295.872ZM32.688 294.016C32.688 291.568 34.496 289.76 36.896 289.76C39.36 289.76 41.152 291.488 41.152 294.016C41.152 296.512 39.36 298.24 36.896 298.24C34.496 298.24 32.688 296.432 32.688 294.016ZM33.968 294C33.968 295.744 35.232 297.024 36.896 297.024C38.672 297.024 39.872 295.808 39.872 294C39.872 292.192 38.656 290.96 36.896 290.96C35.216 290.96 33.968 292.256 33.968 294ZM44.2933 286.8V298H43.0133V286.8H44.2933ZM53.2273 293.952V290H54.5073V298H53.4033L53.2433 296.416C52.6193 297.536 51.5313 298.24 50.2352 298.24C48.2033 298.24 46.7633 296.448 46.7633 293.952V290H48.0433V293.952C48.0433 295.792 49.0673 297.024 50.6193 297.024C52.1713 297.024 53.2273 295.776 53.2273 293.952ZM59.366 291.2V294.256C59.366 296.208 60.118 297.024 61.798 297.024V298.24C59.174 298.24 58.086 296.896 58.086 294.256V291.2H56.406V290.656L58.838 288.208H59.366V290H61.798V291.2H59.366ZM63.8433 287.248C63.8433 286.832 64.1153 286.56 64.5153 286.56C64.9313 286.56 65.2033 286.832 65.2033 287.248C65.2033 287.648 64.9313 287.92 64.5153 287.92C64.1153 287.92 63.8433 287.648 63.8433 287.248ZM65.1553 298H63.8753V290H65.1553V298ZM67.188 294.016C67.188 291.568 68.996 289.76 71.396 289.76C73.86 289.76 75.652 291.488 75.652 294.016C75.652 296.512 73.86 298.24 71.396 298.24C68.996 298.24 67.188 296.432 67.188 294.016ZM68.468 294C68.468 295.744 69.732 297.024 71.396 297.024C73.172 297.024 74.372 295.808 74.372 294C74.372 292.192 73.156 290.96 71.396 290.96C69.716 290.96 68.468 292.256 68.468 294ZM78.7933 294.048V298H77.5133V290H78.6173L78.7773 291.584C79.4013 290.448 80.4573 289.76 81.7693 289.76C83.8333 289.76 85.2573 291.536 85.2573 294.048V298H83.9773V294.048C83.9773 292.192 82.9533 290.96 81.3853 290.96C79.8493 290.96 78.7933 292.208 78.7933 294.048ZM93.988 295.872C93.988 297.216 92.692 298.24 90.836 298.24C88.804 298.24 87.38 297.376 87.188 295.744H88.404C88.58 296.736 89.412 297.264 90.852 297.264C91.94 297.264 92.772 296.656 92.772 295.888C92.772 293.52 87.444 295.328 87.444 292.112C87.444 290.816 88.708 289.76 90.564 289.76C92.532 289.76 93.78 290.704 93.908 292.288H92.724C92.66 291.408 91.972 290.72 90.548 290.72C89.524 290.72 88.676 291.328 88.676 292.096C88.676 294.384 93.988 292.448 93.988 295.872Z"
    fill="white" />
  <path d="M213.232 138V126.8H214.512V136.784H220.736V138H213.232ZM223.265 127.248C223.265 126.832 223.537 126.56 223.937 126.56C224.353 126.56 224.625 126.832 224.625 127.248C224.625 127.648 224.353 127.92 223.937 127.92C223.537 127.92 223.265 127.648 223.265 127.248ZM224.577 138H223.297V130H224.577V138ZM227.89 134C227.89 135.776 229.122 137.072 230.802 137.072C232.13 137.072 233.186 136.32 233.602 135.184H234.93C234.402 137.024 232.85 138.24 230.802 138.24C228.402 138.24 226.61 136.432 226.61 134.016C226.61 131.568 228.386 129.76 230.802 129.76C232.834 129.76 234.386 130.96 234.914 132.8H233.586C233.154 131.68 232.114 130.912 230.802 130.912C229.122 130.912 227.89 132.24 227.89 134ZM244.271 134.368H237.343C237.487 136.016 238.623 137.216 240.143 137.216C241.263 137.216 242.175 136.64 242.703 135.728H244.015C243.359 137.28 241.935 138.24 240.143 138.24C237.791 138.24 236.047 136.432 236.047 134.016C236.047 131.568 237.759 129.76 240.143 129.76C242.575 129.76 244.287 131.488 244.287 134.016C244.287 134.128 244.271 134.24 244.271 134.368ZM237.343 133.632H242.991C242.847 131.952 241.727 130.816 240.143 130.816C238.623 130.816 237.487 131.984 237.343 133.632ZM247.481 134.048V138H246.201V130H247.305L247.465 131.584C248.089 130.448 249.145 129.76 250.457 129.76C252.521 129.76 253.945 131.536 253.945 134.048V138H252.665V134.048C252.665 132.192 251.641 130.96 250.073 130.96C248.537 130.96 247.481 132.208 247.481 134.048ZM262.676 135.872C262.676 137.216 261.38 138.24 259.524 138.24C257.492 138.24 256.068 137.376 255.876 135.744H257.092C257.268 136.736 258.1 137.264 259.54 137.264C260.628 137.264 261.46 136.656 261.46 135.888C261.46 133.52 256.132 135.328 256.132 132.112C256.132 130.816 257.396 129.76 259.252 129.76C261.22 129.76 262.468 130.704 262.596 132.288H261.412C261.348 131.408 260.66 130.72 259.236 130.72C258.212 130.72 257.364 131.328 257.364 132.096C257.364 134.384 262.676 132.448 262.676 135.872ZM272.1 134.368H265.172C265.316 136.016 266.452 137.216 267.972 137.216C269.092 137.216 270.004 136.64 270.532 135.728H271.844C271.188 137.28 269.764 138.24 267.972 138.24C265.62 138.24 263.876 136.432 263.876 134.016C263.876 131.568 265.588 129.76 267.972 129.76C270.404 129.76 272.116 131.488 272.116 134.016C272.116 134.128 272.1 134.24 272.1 134.368ZM265.172 133.632H270.82C270.676 131.952 269.556 130.816 267.972 130.816C266.452 130.816 265.316 131.984 265.172 133.632ZM281.709 138H280.589L280.445 136.384C279.789 137.552 278.621 138.24 277.277 138.24C275.101 138.24 273.469 136.432 273.469 134.016C273.469 131.568 275.085 129.76 277.277 129.76C278.621 129.76 279.773 130.448 280.429 131.6V126.8H281.709V138ZM274.749 134C274.749 135.776 275.981 137.072 277.613 137.072C279.293 137.072 280.429 135.824 280.429 134C280.429 132.192 279.277 130.912 277.613 130.912C275.965 130.912 274.749 132.192 274.749 134ZM213.968 156C213.968 157.776 215.2 159.072 216.88 159.072C218.208 159.072 219.264 158.32 219.68 157.184H221.008C220.48 159.024 218.928 160.24 216.88 160.24C214.48 160.24 212.688 158.432 212.688 156.016C212.688 153.568 214.464 151.76 216.88 151.76C218.912 151.76 220.464 152.96 220.992 154.8H219.664C219.232 153.68 218.192 152.912 216.88 152.912C215.2 152.912 213.968 154.24 213.968 156ZM227.833 151.76V153.104C225.593 153.104 224.153 154.88 224.153 157.728V160H222.873V152H223.977L224.153 154.544C224.825 152.816 226.153 151.76 227.833 151.76ZM233.29 163.152H231.946L233.034 160H230.97L228.25 152H229.562L231.85 158.672H233.482L235.77 152H237.066L233.29 163.152ZM238.342 152H239.446L239.606 153.584C240.278 152.448 241.414 151.76 242.758 151.76C244.934 151.76 246.566 153.568 246.566 155.984C246.566 158.432 244.95 160.24 242.758 160.24C241.43 160.24 240.278 159.568 239.622 158.416V163.2H238.342V152ZM245.286 156C245.286 154.208 244.07 152.912 242.422 152.912C240.742 152.912 239.622 154.176 239.622 156C239.622 157.808 240.774 159.072 242.422 159.072C244.07 159.072 245.286 157.792 245.286 156ZM250.804 153.2V156.256C250.804 158.208 251.556 159.024 253.236 159.024V160.24C250.612 160.24 249.524 158.896 249.524 156.256V153.2H247.844V152.656L250.276 150.208H250.804V152H253.236V153.2H250.804ZM254.594 156.016C254.594 153.568 256.402 151.76 258.802 151.76C261.266 151.76 263.058 153.488 263.058 156.016C263.058 158.512 261.266 160.24 258.802 160.24C256.402 160.24 254.594 158.432 254.594 156.016ZM255.874 156C255.874 157.744 257.138 159.024 258.802 159.024C260.578 159.024 261.778 157.808 261.778 156C261.778 154.192 260.562 152.96 258.802 152.96C257.122 152.96 255.874 154.256 255.874 156ZM265.656 156C265.656 157.776 266.888 159.072 268.568 159.072C269.896 159.072 270.952 158.32 271.368 157.184H272.696C272.168 159.024 270.616 160.24 268.568 160.24C266.168 160.24 264.376 158.432 264.376 156.016C264.376 153.568 266.152 151.76 268.568 151.76C270.6 151.76 272.152 152.96 272.68 154.8H271.352C270.92 153.68 269.88 152.912 268.568 152.912C266.888 152.912 265.656 154.24 265.656 156ZM281.024 155.952V152H282.304V160H281.2L281.04 158.416C280.416 159.536 279.328 160.24 278.032 160.24C276 160.24 274.56 158.448 274.56 155.952V152H275.84V155.952C275.84 157.792 276.864 159.024 278.416 159.024C279.968 159.024 281.024 157.776 281.024 155.952ZM289.739 151.76V153.104C287.499 153.104 286.059 154.88 286.059 157.728V160H284.779V152H285.883L286.059 154.544C286.731 152.816 288.059 151.76 289.739 151.76ZM296.348 151.76V153.104C294.108 153.104 292.668 154.88 292.668 157.728V160H291.388V152H292.492L292.668 154.544C293.34 152.816 294.668 151.76 296.348 151.76ZM305.49 156.368H298.562C298.706 158.016 299.842 159.216 301.362 159.216C302.482 159.216 303.394 158.64 303.922 157.728H305.234C304.578 159.28 303.154 160.24 301.362 160.24C299.01 160.24 297.266 158.432 297.266 156.016C297.266 153.568 298.978 151.76 301.362 151.76C303.794 151.76 305.506 153.488 305.506 156.016C305.506 156.128 305.49 156.24 305.49 156.368ZM298.562 155.632H304.21C304.066 153.952 302.946 152.816 301.362 152.816C299.842 152.816 298.706 153.984 298.562 155.632ZM308.7 156.048V160H307.42V152H308.524L308.684 153.584C309.308 152.448 310.364 151.76 311.676 151.76C313.74 151.76 315.164 153.536 315.164 156.048V160H313.884V156.048C313.884 154.192 312.86 152.96 311.292 152.96C309.756 152.96 308.7 154.208 308.7 156.048ZM318.374 156C318.374 157.776 319.606 159.072 321.286 159.072C322.614 159.072 323.67 158.32 324.086 157.184H325.414C324.886 159.024 323.334 160.24 321.286 160.24C318.886 160.24 317.094 158.432 317.094 156.016C317.094 153.568 318.87 151.76 321.286 151.76C323.318 151.76 324.87 152.96 325.398 154.8H324.07C323.638 153.68 322.598 152.912 321.286 152.912C319.606 152.912 318.374 154.24 318.374 156ZM331.087 163.152H329.743L330.831 160H328.767L326.047 152H327.359L329.647 158.672H331.279L333.567 152H334.863L331.087 163.152ZM220.912 178.368H213.984C214.128 180.016 215.264 181.216 216.784 181.216C217.904 181.216 218.816 180.64 219.344 179.728H220.656C220 181.28 218.576 182.24 216.784 182.24C214.432 182.24 212.688 180.432 212.688 178.016C212.688 175.568 214.4 173.76 216.784 173.76C219.216 173.76 220.928 175.488 220.928 178.016C220.928 178.128 220.912 178.24 220.912 178.368ZM213.984 177.632H219.632C219.488 175.952 218.368 174.816 216.784 174.816C215.264 174.816 214.128 175.984 213.984 177.632ZM226.158 177.952L229.374 182H227.854L225.406 178.912L222.958 182H221.422L224.638 177.952L221.486 174H223.022L225.406 176.992L227.774 174H229.294L226.158 177.952ZM231.093 178C231.093 179.776 232.325 181.072 234.005 181.072C235.333 181.072 236.389 180.32 236.805 179.184H238.133C237.605 181.024 236.053 182.24 234.005 182.24C231.605 182.24 229.813 180.432 229.813 178.016C229.813 175.568 231.589 173.76 234.005 173.76C236.037 173.76 237.589 174.96 238.117 176.8H236.789C236.357 175.68 235.317 174.912 234.005 174.912C232.325 174.912 231.093 176.24 231.093 178ZM241.294 178.144V182H240.014V170.8H241.294V175.584C241.918 174.464 242.974 173.76 244.27 173.76C246.318 173.76 247.742 175.568 247.742 178.144V182H246.462V178.144C246.462 176.224 245.454 174.96 243.886 174.96C242.35 174.96 241.294 176.256 241.294 178.144ZM257.928 182H256.824L256.664 180.352C256.024 181.536 254.872 182.24 253.512 182.24C251.32 182.24 249.656 180.432 249.656 178.016C249.656 175.568 251.32 173.76 253.512 173.76C254.872 173.76 256.008 174.464 256.648 175.648L256.824 174H257.928V182ZM250.936 178C250.936 179.776 252.168 181.072 253.848 181.072C255.496 181.072 256.648 179.824 256.648 178C256.648 176.192 255.496 174.912 253.848 174.912C252.136 174.912 250.936 176.192 250.936 178ZM261.653 178.048V182H260.373V174H261.477L261.637 175.584C262.261 174.448 263.317 173.76 264.629 173.76C266.693 173.76 268.117 175.536 268.117 178.048V182H266.837V178.048C266.837 176.192 265.813 174.96 264.245 174.96C262.709 174.96 261.653 176.208 261.653 178.048ZM276.991 181.792V180.288C276.335 181.424 275.183 182.112 273.839 182.112C271.647 182.112 270.031 180.304 270.031 177.936C270.031 175.536 271.647 173.76 273.839 173.76C275.199 173.76 276.351 174.432 277.007 175.584L277.151 174H278.271V181.792C278.271 184.256 276.623 186.032 274.271 186.032C272.303 186.032 270.783 184.816 270.303 182.96H271.567C271.999 184.128 273.007 184.848 274.271 184.848C275.871 184.848 276.991 183.6 276.991 181.792ZM271.311 177.936C271.311 179.68 272.527 180.928 274.175 180.928C275.855 180.928 276.991 179.696 276.991 177.936C276.991 176.16 275.823 174.912 274.175 174.912C272.511 174.912 271.311 176.192 271.311 177.936ZM288.428 178.368H281.5C281.644 180.016 282.78 181.216 284.3 181.216C285.42 181.216 286.332 180.64 286.86 179.728H288.172C287.516 181.28 286.092 182.24 284.3 182.24C281.948 182.24 280.204 180.432 280.204 178.016C280.204 175.568 281.916 173.76 284.3 173.76C286.732 173.76 288.444 175.488 288.444 178.016C288.444 178.128 288.428 178.24 288.428 178.368ZM281.5 177.632H287.148C287.004 175.952 285.884 174.816 284.3 174.816C282.78 174.816 281.644 175.984 281.5 177.632Z"
    fill="white" />
  <path d="M401.68 224.4C401.68 227.088 403.424 229.024 405.824 229.024C408.016 229.024 409.664 227.488 410.016 225.184H405.904V224.096H411.472V230H410.352L410.224 227.664C409.232 229.28 407.616 230.24 405.632 230.24C402.64 230.24 400.4 227.744 400.4 224.416C400.4 221.056 402.672 218.576 405.792 218.56C408.368 218.544 410.368 220.208 411.088 222.768H409.792C409.2 220.928 407.664 219.76 405.776 219.76C403.376 219.76 401.68 221.712 401.68 224.4ZM414.918 218.8V230H413.638V218.8H414.918ZM416.844 226.016C416.844 223.568 418.652 221.76 421.052 221.76C423.516 221.76 425.308 223.488 425.308 226.016C425.308 228.512 423.516 230.24 421.052 230.24C418.652 230.24 416.844 228.432 416.844 226.016ZM418.124 226C418.124 227.744 419.388 229.024 421.052 229.024C422.828 229.024 424.028 227.808 424.028 226C424.028 224.192 422.812 222.96 421.052 222.96C419.372 222.96 418.124 224.256 418.124 226ZM428.45 228.352L428.274 230H427.17V218.8H428.45V223.632C429.09 222.464 430.226 221.76 431.586 221.76C433.778 221.76 435.442 223.568 435.442 226.016C435.442 228.432 433.778 230.24 431.586 230.24C430.226 230.24 429.09 229.536 428.45 228.352ZM434.161 226C434.161 224.192 432.962 222.912 431.25 222.912C429.602 222.912 428.45 224.192 428.45 226C428.45 227.824 429.586 229.072 431.25 229.072C432.93 229.072 434.161 227.776 434.161 226ZM445.038 230H443.934L443.774 228.352C443.134 229.536 441.982 230.24 440.622 230.24C438.43 230.24 436.766 228.432 436.766 226.016C436.766 223.568 438.43 221.76 440.622 221.76C441.982 221.76 443.118 222.464 443.758 223.648L443.934 222H445.038V230ZM438.046 226C438.046 227.776 439.278 229.072 440.958 229.072C442.606 229.072 443.758 227.824 443.758 226C443.758 224.192 442.606 222.912 440.958 222.912C439.246 222.912 438.046 224.192 438.046 226ZM448.762 218.8V230H447.482V218.8H448.762ZM457.264 222H462.88V230H461.6V223.2H457.264V230H455.984V223.2H454.272V222H455.984C455.984 219.792 457.376 218.56 459.776 218.56V219.616C458.128 219.616 457.264 220.416 457.264 222ZM461.568 219.248C461.568 218.832 461.84 218.56 462.24 218.56C462.656 218.56 462.928 218.832 462.928 219.248C462.928 219.648 462.656 219.92 462.24 219.92C461.84 219.92 461.568 219.648 461.568 219.248ZM466.668 226.048V230H465.388V222H466.492L466.652 223.584C467.276 222.448 468.332 221.76 469.644 221.76C471.708 221.76 473.132 223.536 473.132 226.048V230H471.852V226.048C471.852 224.192 470.828 222.96 469.26 222.96C467.724 222.96 466.668 224.208 466.668 226.048ZM483.319 230H482.215L482.055 228.352C481.415 229.536 480.263 230.24 478.903 230.24C476.711 230.24 475.047 228.432 475.047 226.016C475.047 223.568 476.711 221.76 478.903 221.76C480.263 221.76 481.399 222.464 482.039 223.648L482.215 222H483.319V230ZM476.327 226C476.327 227.776 477.559 229.072 479.239 229.072C480.887 229.072 482.039 227.824 482.039 226C482.039 224.192 480.887 222.912 479.239 222.912C477.527 222.912 476.327 224.192 476.327 226ZM487.043 226.048V230H485.763V222H486.867L487.027 223.584C487.651 222.448 488.707 221.76 490.019 221.76C492.083 221.76 493.507 223.536 493.507 226.048V230H492.227V226.048C492.227 224.192 491.203 222.96 489.635 222.96C488.099 222.96 487.043 224.208 487.043 226.048ZM496.718 226C496.718 227.776 497.95 229.072 499.63 229.072C500.958 229.072 502.014 228.32 502.43 227.184H503.758C503.23 229.024 501.678 230.24 499.63 230.24C497.23 230.24 495.438 228.432 495.438 226.016C495.438 223.568 497.214 221.76 499.63 221.76C501.662 221.76 503.214 222.96 503.742 224.8H502.414C501.982 223.68 500.942 222.912 499.63 222.912C497.95 222.912 496.718 224.24 496.718 226ZM513.1 226.368H506.172C506.316 228.016 507.452 229.216 508.972 229.216C510.092 229.216 511.004 228.64 511.532 227.728H512.844C512.188 229.28 510.764 230.24 508.972 230.24C506.62 230.24 504.876 228.432 504.876 226.016C504.876 223.568 506.588 221.76 508.972 221.76C511.404 221.76 513.116 223.488 513.116 226.016C513.116 226.128 513.1 226.24 513.1 226.368ZM506.172 225.632H511.82C511.676 223.952 510.556 222.816 508.972 222.816C507.452 222.816 506.316 223.984 506.172 225.632ZM401.248 244H402.352L402.512 245.584C403.184 244.448 404.32 243.76 405.664 243.76C407.84 243.76 409.472 245.568 409.472 247.984C409.472 250.432 407.856 252.24 405.664 252.24C404.336 252.24 403.184 251.568 402.528 250.416V255.2H401.248V244ZM408.192 248C408.192 246.208 406.976 244.912 405.328 244.912C403.648 244.912 402.528 246.176 402.528 248C402.528 249.808 403.68 251.072 405.328 251.072C406.976 251.072 408.192 249.792 408.192 248ZM416.348 243.76V245.104C414.108 245.104 412.668 246.88 412.668 249.728V252H411.388V244H412.492L412.668 246.544C413.34 244.816 414.668 243.76 416.348 243.76ZM417.266 248.016C417.266 245.568 419.074 243.76 421.474 243.76C423.938 243.76 425.73 245.488 425.73 248.016C425.73 250.512 423.938 252.24 421.474 252.24C419.074 252.24 417.266 250.432 417.266 248.016ZM418.546 248C418.546 249.744 419.81 251.024 421.474 251.024C423.25 251.024 424.45 249.808 424.45 248C424.45 246.192 423.234 244.96 421.474 244.96C419.794 244.96 418.546 246.256 418.546 248ZM426.078 244H427.454L430.414 250.496L433.406 244H434.766L431.102 252H429.726L426.078 244ZM436.078 241.248C436.078 240.832 436.35 240.56 436.75 240.56C437.166 240.56 437.438 240.832 437.438 241.248C437.438 241.648 437.166 241.92 436.75 241.92C436.35 241.92 436.078 241.648 436.078 241.248ZM437.39 252H436.11V244H437.39V252ZM447.646 252H446.526L446.382 250.384C445.726 251.552 444.558 252.24 443.214 252.24C441.038 252.24 439.406 250.432 439.406 248.016C439.406 245.568 441.022 243.76 443.214 243.76C444.558 243.76 445.71 244.448 446.366 245.6V240.8H447.646V252ZM440.686 248C440.686 249.776 441.918 251.072 443.55 251.072C445.23 251.072 446.366 249.824 446.366 248C446.366 246.192 445.214 244.912 443.55 244.912C441.902 244.912 440.686 246.192 440.686 248ZM457.803 248.368H450.875C451.019 250.016 452.155 251.216 453.675 251.216C454.795 251.216 455.707 250.64 456.235 249.728H457.547C456.891 251.28 455.467 252.24 453.675 252.24C451.323 252.24 449.579 250.432 449.579 248.016C449.579 245.568 451.291 243.76 453.675 243.76C456.107 243.76 457.819 245.488 457.819 248.016C457.819 248.128 457.803 248.24 457.803 248.368ZM450.875 247.632H456.523C456.379 245.952 455.259 244.816 453.675 244.816C452.155 244.816 451.019 245.984 450.875 247.632ZM464.692 243.76V245.104C462.452 245.104 461.012 246.88 461.012 249.728V252H459.732V244H460.836L461.012 246.544C461.684 244.816 463.012 243.76 464.692 243.76Z"
    fill="white" />
  <circle cx="56" cy="182" r="30" fill="#4F7CFF" />
  <circle cx="244" cy="66" r="30" fill="#7DF137" />
  <circle cx="432" cy="158" r="30" fill="#9B42FC" />
  <path d="M258.666 71.293C258.666 76.453 254.493 80.6263 249.333 80.6263L250.733 78.293"
    stroke="#212A3B"
    stroke-width="1.5"
    stroke-linecap="round"
    stroke-linejoin="round" />
  <path d="M229.333 60.6263C229.333 55.4663 233.506 51.293 238.666 51.293L237.266 53.6263"
    stroke="#212A3B"
    stroke-width="1.5"
    stroke-linecap="round"
    stroke-linejoin="round" />
  <path d="M236.827 67.4277H240.574C241.4 67.4277 242.08 68.1744 242.08 68.9344C242.08 69.7611 241.414 70.4411 240.574 70.4411H236.827V67.4277Z"
    stroke="#212A3B"
    stroke-width="1.5"
    stroke-miterlimit="10"
    stroke-linecap="round"
    stroke-linejoin="round" />
  <path d="M236.827 70.4395H241.12C242.067 70.4395 242.84 71.1061 242.84 71.9461C242.84 72.7728 242.067 73.4528 241.12 73.4528H236.827V70.4395Z"
    stroke="#212A3B"
    stroke-width="1.5"
    stroke-miterlimit="10"
    stroke-linecap="round"
    stroke-linejoin="round" />
  <path d="M239.228 73.4395V74.9328"
    stroke="#212A3B"
    stroke-width="1.5"
    stroke-miterlimit="10"
    stroke-linecap="round"
    stroke-linejoin="round" />
  <path d="M239.228 65.9336V67.4269"
    stroke="#212A3B"
    stroke-width="1.5"
    stroke-miterlimit="10"
    stroke-linecap="round"
    stroke-linejoin="round" />
  <path d="M247.8 70.4416C247.8 74.9882 244.12 78.6682 239.573 78.6682C235.027 78.6682 231.347 74.9882 231.347 70.4416C231.347 65.8949 235.027 62.2148 239.573 62.2148C239.787 62.2148 239.987 62.2282 240.213 62.2415C244.253 62.5482 247.48 65.7749 247.787 69.8149C247.787 70.0149 247.8 70.2149 247.8 70.4416Z"
    stroke="#212A3B"
    stroke-width="1.5"
    stroke-miterlimit="10"
    stroke-linecap="round"
    stroke-linejoin="round" />
  <path d="M256.666 61.5606C256.666 66.1073 252.986 69.7874 248.44 69.7874H247.786C247.48 65.7474 244.253 62.5206 240.213 62.2139V61.5606C240.213 57.014 243.893 53.334 248.44 53.334C252.986 53.334 256.666 57.014 256.666 61.5606Z"
    stroke="#212A3B"
    stroke-width="1.5"
    stroke-miterlimit="10"
    stroke-linecap="round"
    stroke-linejoin="round" />
  <path d="M447 158C447 149.72 440.28 143 432 143C423.72 143 417 149.72 417 158C417 166.28 423.72 173 432 173"
    stroke="white"
    stroke-width="1.5"
    stroke-linecap="round"
    stroke-linejoin="round" />
  <path d="M426 144.5H427.5C424.575 153.26 424.575 162.74 427.5 171.5H426"
    stroke="white"
    stroke-width="1.5"
    stroke-linecap="round"
    stroke-linejoin="round" />
  <path d="M436.5 144.5C437.955 148.88 438.69 153.44 438.69 158"
    stroke="white"
    stroke-width="1.5"
    stroke-linecap="round"
    stroke-linejoin="round" />
  <path d="M418.5 164V162.5C422.88 163.955 427.44 164.69 432 164.69"
    stroke="white"
    stroke-width="1.5"
    stroke-linecap="round"
    stroke-linejoin="round" />
  <path d="M418.5 153.5C427.26 150.575 436.74 150.575 445.5 153.5"
    stroke="white"
    stroke-width="1.5"
    stroke-linecap="round"
    stroke-linejoin="round" />
  <path d="M441.3 172.1C443.951 172.1 446.1 169.951 446.1 167.3C446.1 164.649 443.951 162.5 441.3 162.5C438.649 162.5 436.5 164.649 436.5 167.3C436.5 169.951 438.649 172.1 441.3 172.1Z"
    stroke="white"
    stroke-width="1.5"
    stroke-linecap="round"
    stroke-linejoin="round" />
  <path d="M447 173L445.5 171.5" stroke="white" stroke-width="1.5" stroke-linecap="round" stroke-linejoin="round" />
  <path d="M57.9187 166.483L67.9549 171.895C69.1266 172.527 69.1266 174.331 67.9549 174.963L57.9187 180.374C57.0245 180.852 55.9762 180.852 55.082 180.374L45.0457 174.963C43.8741 174.331 43.8741 172.527 45.0457 171.895L55.082 166.483C55.9762 166.006 57.0245 166.006 57.9187 166.483Z"
    stroke="white"
    stroke-width="1.5"
    stroke-linecap="round"
    stroke-linejoin="round" />
  <path d="M43.5651 178.617L52.8922 183.288C54.0484 183.874 54.7884 185.061 54.7884 186.356V195.174C54.7884 196.454 53.4472 197.271 52.3063 196.7L42.9793 192.029C41.823 191.443 41.083 190.256 41.083 188.961V180.143C41.083 178.863 42.4243 178.046 43.5651 178.617Z"
    stroke="white"
    stroke-width="1.5"
    stroke-linecap="round"
    stroke-linejoin="round" />
  <path d="M69.4343 178.617L60.1072 183.288C58.9509 183.874 58.2109 185.061 58.2109 186.356V195.174C58.2109 196.454 59.5522 197.271 60.693 196.7L70.0201 192.029C71.1764 191.443 71.9164 190.256 71.9164 188.961V180.143C71.9164 178.863 70.5751 178.046 69.4343 178.617Z"
    stroke="white"
    stroke-width="1.5"
    stroke-linecap="round"
    stroke-linejoin="round" />
  <defs>
    <linearGradient id="paint0_linear_13_3158" x1="86" y1="116" x2="86" y2="333" gradientUnits="userSpaceOnUse">
      <stop stop-color="#1E2635" />
      <stop offset="1" stop-color="#3F4C6F" />
    </linearGradient>
    <linearGradient id="paint1_linear_13_3158" x1="274" y1="0" x2="274" y2="217" gradientUnits="userSpaceOnUse">
      <stop stop-color="#1E2635" />
      <stop offset="1" stop-color="#3F4C6F" />
    </linearGradient>
    <linearGradient id="paint2_linear_13_3158" x1="462" y1="92" x2="462" y2="309" gradientUnits="userSpaceOnUse">
      <stop stop-color="#1E2635" />
      <stop offset="1" stop-color="#3F4C6F" />
    </linearGradient>
  </defs>
</svg>
