<svg width="43" height="42" viewBox="0 0 43 42" fill="none" xmlns="http://www.w3.org/2000/svg">
<path d="M2.0598 34.1067C3.11935 34.1067 4.00551 33.2976 4.10184 32.238L5.89344 11.7309C5.99939 10.5365 5.05543 9.50586 3.8514 9.50586C2.79185 9.50586 1.90568 10.315 1.80936 11.3745L0.008124 31.8816C-0.0978309 33.076 0.846131 34.1067 2.05016 34.1067H2.0598Z" fill="white"/>
<path d="M10.1317 33.8088H10.9216L12.5494 15.1992H8.43646L7.09757 30.4953C6.94345 32.2772 8.34013 33.8088 10.1317 33.8088Z" fill="white"/>
<path d="M20.1204 33.8099C21.8446 33.8099 23.2798 32.4903 23.4339 30.7757L25.0039 12.8115C25.1581 11.0296 23.7614 9.49805 21.9698 9.49805H21.5171H13.0503H11.9811C10.2569 9.49805 8.82173 10.8177 8.66761 12.5322L8.57129 13.611H12.1834H12.4049H12.6843H20.8139L19.4076 29.6969H13.0214L12.665 33.8099H19.0512H20.1204Z" fill="white"/>
<path d="M32.9504 15.5654C32.9793 15.2187 32.7192 14.9297 32.3725 14.9297H27.3637C27.0169 14.9297 26.7087 15.209 26.6702 15.5654C26.6413 15.9122 26.9013 16.2011 27.2481 16.2011H32.2569C32.6036 16.2011 32.9119 15.9218 32.9504 15.5654Z" fill="white"/>
<path d="M6.58739 36.5634C9.92016 39.5398 14.2161 41.1773 18.6855 41.1773C27.422 41.1773 34.9352 34.9548 36.5437 26.3725C36.6401 25.8716 36.3029 25.3803 35.8021 25.284C35.2915 25.1877 34.8099 25.5248 34.7136 26.0257C33.2784 33.7219 26.5358 39.3182 18.6855 39.3182C14.6689 39.3182 10.816 37.8445 7.82996 35.1764C7.44466 34.8392 6.8571 34.8681 6.51997 35.2534C6.18284 35.6387 6.21174 36.2263 6.59703 36.5634H6.58739Z" fill="white"/>
<path d="M8.69604 6.25192C8.30111 6.57941 8.24332 7.16698 8.56118 7.5619C8.88868 7.95683 9.47625 8.01462 9.87117 7.69676C12.7705 5.32722 16.4307 4.01723 20.1873 4.01723C23.9439 4.01723 27.7679 5.38501 30.7058 7.86051C30.8791 8.00499 31.0911 8.08205 31.303 8.08205C31.563 8.08205 31.8327 7.96646 32.0158 7.75455C32.3433 7.35963 32.2951 6.77206 31.9098 6.44456C28.6445 3.6801 24.4737 2.1582 20.1873 2.1582C15.901 2.1582 11.9228 3.61268 8.69604 6.25192Z" fill="white"/>
<path d="M8.23467 4.52716C8.29246 4.52716 8.35025 4.5079 8.40805 4.46937C11.789 1.94572 15.8249 0.5972 20.0631 0.568304C20.2172 0.568304 20.3521 0.443084 20.3424 0.279336C20.3424 0.125219 20.2172 0 20.0535 0C15.69 0.0288968 11.5385 1.41594 8.05165 4.01666C7.92643 4.11298 7.89754 4.28636 7.99386 4.42121C8.05165 4.49827 8.13834 4.5368 8.22503 4.5368L8.23467 4.52716Z" fill="white"/>
<path d="M38.9517 26.2463C38.9806 26.0922 38.8747 25.9477 38.7109 25.9188C38.5568 25.8899 38.4123 25.9959 38.3834 26.1596C37.6706 30.6579 35.3974 34.819 31.9876 37.8821C31.872 37.988 31.8624 38.171 31.9683 38.2866C32.0261 38.3541 32.1032 38.383 32.1802 38.383C32.2477 38.383 32.3151 38.3637 32.3729 38.3059C35.8887 35.1658 38.2197 30.8794 38.9517 26.2463Z" fill="white"/>
<path d="M34.877 11.7227H33.0469L35.3586 15.277L36.37 14.0055L34.877 11.7227Z" fill="white"/>
<path d="M33.326 22.366H40.5502C41.0126 22.366 41.2919 21.8555 41.0415 21.4605L40.7044 20.95L37.8917 16.6348L36.89 17.8966L38.8742 20.95H34.4434L33.3164 22.366H33.326Z" fill="white"/>
<path d="M32.2189 10.4417L32.5946 11.0196H39.6454L31.718 20.9601L31.1979 21.6055C30.9474 21.9137 31.169 22.376 31.5639 22.376H32.3923L33.5193 20.9601L34.6173 19.5827L41.4466 11.0292L42.0342 10.2972C42.2557 10.0178 42.0631 9.61328 41.7067 9.61328H32.6716C32.2382 9.61328 31.9781 10.0949 32.2189 10.4609V10.4417Z" fill="white"/>
</svg>
