<svg width="39" height="38" viewBox="0 0 39 38" fill="none" xmlns="http://www.w3.org/2000/svg">
  <path d="M38.0357 17.8324C38.0203 17.616 38.0177 17.3969 37.9971 17.1779C37.9739 16.9202 37.9429 16.6651 37.9043 16.4099C37.8476 16.0208 37.796 15.6317 37.7239 15.2477C37.412 13.6217 36.8863 12.0652 36.1492 10.5835C34.6208 7.50918 32.4173 5.03788 29.5333 3.17475C27.5462 1.89143 25.3864 1.02558 23.0643 0.569459C22.6674 0.49215 22.2679 0.427727 21.8659 0.373611C21.5849 0.334957 21.3014 0.316918 21.0179 0.293726C20.7448 0.270533 20.4716 0.252494 20.1984 0.234456C20.1881 0.234456 20.1778 0.224148 20.1674 0.218994H18.7912C18.6546 0.229302 18.5154 0.23961 18.3788 0.252494C17.8092 0.314341 17.2371 0.363303 16.6701 0.443188C14.9794 0.677691 13.3634 1.17504 11.8093 1.87597C10.0207 2.68255 8.39958 3.75199 6.94857 5.07654C5.38674 6.50159 4.10583 8.14568 3.10327 10.0062C2.20122 11.6813 1.57237 13.4542 1.2167 15.3225C1.14969 15.6781 1.08784 16.0337 1.03371 16.3893C0.997632 16.6367 0.977014 16.8867 0.958973 17.1366C0.935778 17.4459 0.910005 17.7577 0.899696 18.0695C0.886809 18.5437 0.863614 19.0178 0.886809 19.4894C0.912582 20.0615 0.966705 20.6336 1.03629 21.2031C1.16258 22.2467 1.38938 23.2698 1.69865 24.2748C2.46153 26.7512 3.68316 28.9726 5.37128 30.9388C6.96404 32.7942 8.85318 34.2785 11.0336 35.3917C12.5593 36.17 14.1624 36.7292 15.8402 37.059C16.3634 37.1621 16.8943 37.2342 17.4252 37.3064C17.7268 37.3476 18.0309 37.3605 18.335 37.3863C18.469 37.3966 18.6005 37.4095 18.7345 37.4224H20.2035C20.2267 37.4172 20.2473 37.4069 20.2705 37.4043C20.652 37.3786 21.036 37.376 21.4148 37.3244C22.054 37.2394 22.6932 37.1441 23.3246 37.0152C25.6081 36.541 27.724 35.6597 29.6699 34.3764C32.3812 32.5906 34.4868 30.2559 35.9868 27.3749C36.876 25.6638 37.479 23.8573 37.8038 21.9581C37.8734 21.5484 37.9223 21.1361 37.9739 20.7212C37.9971 20.5253 38.0022 20.3269 38.0151 20.1311C38.028 19.9404 38.0409 19.7497 38.0563 19.5616C38.0563 19.5512 38.0667 19.5409 38.0718 19.5306V18.1365C38.0589 18.036 38.0435 17.9381 38.0357 17.8376V17.8324ZM27.8632 16.2373C27.8168 16.7424 27.7111 17.232 27.5024 17.6958C27.0874 18.6184 26.371 19.1776 25.4045 19.4327C25.371 19.443 25.3349 19.4533 25.2782 19.4688C25.3246 19.4946 25.3529 19.51 25.3813 19.5255C25.8839 19.8012 26.3503 20.1259 26.724 20.5691C27.1957 21.1309 27.438 21.7752 27.4405 22.5122C27.4457 23.5945 27.1235 24.5814 26.5617 25.4911C25.9818 26.4317 25.121 26.9806 24.0488 27.2022C23.7731 27.2589 23.4921 27.2975 23.2138 27.3156C22.8607 27.3388 22.5025 27.3388 22.1468 27.3336C21.938 27.331 21.7293 27.3001 21.5205 27.2769C21.2267 27.2434 20.9329 27.2099 20.6417 27.1661C20.4381 27.1378 20.2396 27.0914 20.0308 27.0527C19.7525 28.1634 19.4767 29.2689 19.201 30.3847C18.5283 30.2172 17.8659 30.0523 17.1933 29.8848C17.4665 28.787 17.7396 27.6996 18.0128 26.5992C17.4819 26.4626 16.9536 26.3235 16.4123 26.1843C16.1392 27.2821 15.8634 28.3799 15.5902 29.4828C14.9175 29.3153 14.2552 29.1504 13.5825 28.9829C13.8583 27.8696 14.134 26.7641 14.415 25.638C13.067 25.2978 11.7243 24.9603 10.3738 24.6201C10.3867 24.5866 10.397 24.5557 10.4099 24.5248C10.714 23.8212 11.0207 23.1177 11.3248 22.4117C11.3557 22.3395 11.3867 22.3266 11.4614 22.3447C11.8918 22.458 12.3248 22.5688 12.7578 22.6719C12.8969 22.7054 13.0335 22.7415 13.1856 22.708C13.4923 22.6384 13.683 22.4477 13.7552 22.1591C14.0928 20.8294 14.4227 19.4997 14.7552 18.17C15.1598 16.5491 15.5696 14.9282 15.9613 13.3047C16.0825 12.8022 15.9149 12.3513 15.3995 12.1219C15.1108 11.9956 14.7938 11.9261 14.4871 11.841C14.1985 11.7637 13.9047 11.7019 13.6031 11.6297C13.7809 10.9185 13.9562 10.2098 14.1366 9.48569C15.4845 9.82327 16.8299 10.1609 18.1855 10.4984C18.4639 9.38777 18.7371 8.29257 19.0102 7.18963C19.6778 7.35714 20.3401 7.52206 21.0179 7.68956C20.7499 8.7693 20.4819 9.84131 20.2113 10.9236C20.7499 11.0499 21.2782 11.1736 21.8195 11.3024C22.0849 10.2356 22.353 9.16873 22.621 8.09157C23.2937 8.25907 23.956 8.42399 24.6287 8.59149C24.3555 9.69185 24.0823 10.7845 23.8066 11.8926C23.8478 11.908 23.8865 11.9235 23.9251 11.9364C24.6674 12.2018 25.389 12.5085 26.054 12.9388C26.5488 13.2609 26.9921 13.6397 27.3297 14.1294C27.7678 14.7659 27.9328 15.4745 27.8632 16.2373Z"
    fill="#F6921A" />
  <path d="M26.0545 12.9414C25.3896 12.5111 24.6679 12.2044 23.9257 11.939C23.887 11.9261 23.8484 11.9106 23.8071 11.8952C24.0829 10.7897 24.3561 9.69448 24.6293 8.59412C23.9566 8.42662 23.2943 8.26169 22.6216 8.09419C22.3535 9.17136 22.0855 10.2382 21.82 11.3051C21.2788 11.1788 20.7479 11.0525 20.2118 10.9263C20.4824 9.84652 20.7479 8.77193 21.0185 7.69219C20.3407 7.52211 19.6783 7.35719 19.0108 7.19226C18.735 8.29519 18.4619 9.3904 18.1861 10.5011C16.8304 10.1609 15.4877 9.8259 14.1372 9.48832C13.9568 10.2124 13.7815 10.9211 13.6037 11.6323C13.9052 11.7045 14.199 11.7663 14.4877 11.8436C14.7944 11.9261 15.1088 11.9957 15.4 12.1245C15.9155 12.3513 16.083 12.8023 15.9619 13.3074C15.5701 14.9308 15.1578 16.5517 14.7557 18.1726C14.4233 19.5023 14.0959 20.8346 13.7557 22.1617C13.681 22.4504 13.4903 22.6411 13.1862 22.7106C13.0367 22.7441 12.8975 22.7081 12.7583 22.6746C12.3253 22.5715 11.8924 22.4607 11.462 22.3473C11.3846 22.3267 11.3563 22.3421 11.3254 22.4143C11.0238 23.1204 10.7171 23.8239 10.4104 24.5274C10.3975 24.5583 10.3872 24.5866 10.3743 24.6227C11.7248 24.9629 13.0676 25.3005 14.4155 25.6406C14.1372 26.7642 13.8614 27.8723 13.5831 28.9855C14.2557 29.153 14.9181 29.3179 15.5908 29.4854C15.8665 28.3825 16.1397 27.2847 16.4129 26.1869C16.9541 26.3287 17.4825 26.4652 18.0134 26.6018C17.7402 27.7022 17.467 28.7896 17.1938 29.8874C17.8665 30.0549 18.5289 30.2199 19.2015 30.3874C19.4799 29.2715 19.7556 28.1686 20.0314 27.0554C20.2402 27.094 20.4412 27.1404 20.6422 27.1687C20.9335 27.2126 21.2273 27.2461 21.5211 27.2796C21.7298 27.3028 21.9386 27.3337 22.1474 27.3363C22.503 27.3414 22.8587 27.3414 23.2144 27.3182C23.4953 27.3002 23.7762 27.2615 24.0494 27.2048C25.1215 26.9832 25.9849 26.4343 26.5622 25.4937C27.1241 24.5841 27.4463 23.5971 27.4411 22.5148C27.4359 21.7778 27.1963 21.1335 26.7246 20.5718C26.3509 20.1285 25.887 19.8038 25.3819 19.5281C25.3535 19.5126 25.3252 19.4972 25.2788 19.4714C25.3355 19.4559 25.3715 19.4456 25.405 19.4353C26.3715 19.1802 27.088 18.621 27.503 17.6985C27.7117 17.2346 27.82 16.745 27.8638 16.2399C27.9334 15.4771 27.7684 14.7685 27.3303 14.132C26.9927 13.6424 26.5494 13.2635 26.0545 12.9414ZM21.9747 24.2697C21.5365 24.4088 21.0829 24.4501 20.6268 24.4269C20.2788 24.4114 19.9309 24.3779 19.5855 24.3315C18.8433 24.231 18.1191 24.0403 17.3974 23.8496C17.2866 23.8213 17.1758 23.7929 17.0572 23.762C17.4258 22.2829 17.7918 20.8166 18.1603 19.34C18.4619 19.4096 18.7557 19.4766 19.0495 19.5436C19.7711 19.7111 20.485 19.8992 21.1706 20.1775C21.6809 20.3862 22.168 20.631 22.5855 20.9995C22.9231 21.2985 23.1809 21.6489 23.2659 22.0999C23.454 23.0843 22.9257 23.9656 21.9695 24.2671L21.9747 24.2697ZM23.9205 16.1214C23.8484 16.928 23.4437 17.598 22.3948 17.7912C22.1035 17.8454 21.7994 17.8686 21.503 17.8634C21.217 17.8608 20.9335 17.8119 20.65 17.7706C19.9876 17.6727 19.3459 17.4897 18.7015 17.3222C18.6964 17.3222 18.6912 17.3171 18.6732 17.3042C19.0031 15.9771 19.3356 14.6474 19.6706 13.3022C20.0443 13.3898 20.4077 13.4671 20.7685 13.5573C21.3793 13.7068 21.9798 13.8897 22.5443 14.1758C22.9257 14.3691 23.2788 14.601 23.552 14.9386C23.8329 15.2839 23.9618 15.6781 23.9231 16.1214H23.9205Z"
    fill="#FEFEFE" />
  <path d="M22.5906 21.002C22.1731 20.6335 21.686 20.3886 21.1757 20.1799C20.4902 19.899 19.7737 19.7109 19.0546 19.546C18.7608 19.479 18.4644 19.412 18.1655 19.3424C17.7969 20.8164 17.4309 22.2853 17.0624 23.7644C17.1809 23.7954 17.2918 23.8237 17.4026 23.8521C18.1268 24.0428 18.8484 24.2335 19.5907 24.334C19.936 24.3803 20.284 24.4113 20.6319 24.4293C21.0881 24.4499 21.5391 24.4087 21.9798 24.2721C22.936 23.9706 23.4643 23.0893 23.2762 22.1049C23.1886 21.6514 22.9334 21.3009 22.5958 21.0045L22.5906 21.002Z"
    fill="#F6931A" />
  <path d="M22.5434 14.1756C21.979 13.8895 21.3785 13.7092 20.7677 13.5571C20.4068 13.4695 20.046 13.3896 19.6697 13.302C19.3347 14.6446 19.0022 15.9769 18.6723 17.304C18.6904 17.3143 18.6955 17.3195 18.7007 17.322C19.345 17.4921 19.9867 17.6751 20.6491 17.7704C20.9326 17.8117 21.2187 17.8606 21.5022 17.8632C21.7986 17.8658 22.1027 17.8426 22.3939 17.791C23.4429 17.6003 23.8475 16.9278 23.9197 16.1212C23.9583 15.6779 23.8295 15.2837 23.5485 14.9384C23.2754 14.6008 22.9223 14.3689 22.5408 14.1756H22.5434Z"
    fill="#F6931A" />
</svg>
