<svg width="46" height="46" viewBox="0 0 46 46" fill="none" xmlns="http://www.w3.org/2000/svg">
  <path d="M41.0332 27.5768C43.4194 17.4682 37.158 7.33946 27.0481 4.95361C16.9382 2.56777 6.80817 8.82829 4.42202 18.9369C2.03586 29.0455 8.2972 39.1742 18.4071 41.5601C28.517 43.9459 38.6471 37.6854 41.0332 27.5768Z"
    fill="#ECEFF0" />
  <path d="M14.3167 23.409C15.3591 22.9348 16.4014 22.4606 17.4437 21.9864C18.2828 21.6034 19.1218 21.223 19.9609 20.8427C20.8599 20.4336 21.7589 20.0245 22.6579 19.6155C22.6787 19.6051 22.7022 19.5999 22.723 19.592C22.7256 19.5608 22.7308 19.5321 22.7308 19.5008C22.7308 16.0877 22.7308 12.6746 22.7308 9.26404C22.7308 9.23278 22.7256 9.20412 22.723 9.17285C22.7074 9.1937 22.6917 9.21193 22.6787 9.23278C22.1654 10.0848 21.652 10.9341 21.1387 11.7861C19.8879 13.8601 18.6397 15.934 17.389 18.0079C16.49 19.4982 15.5936 20.9886 14.6946 22.4815C14.593 22.6508 14.4887 22.8228 14.3871 22.9921C14.2855 23.1615 14.1839 23.3335 14.0822 23.5028C14.1604 23.4715 14.2386 23.4429 14.3141 23.409H14.3167Z"
    fill="#8B8B8B" />
  <path d="M30.5394 22.1086C30.0782 21.3426 29.617 20.574 29.1532 19.808C28.7024 19.0602 28.2516 18.3124 27.8008 17.5673C27.3395 16.8013 26.8757 16.0327 26.4145 15.2667C25.9611 14.5137 25.5077 13.7581 25.0517 13.0051C24.6061 12.2678 24.1579 11.5305 23.7123 10.7905C23.3996 10.2694 23.0869 9.74833 22.7742 9.22724C22.7716 9.22203 22.7664 9.21682 22.7638 9.21161C22.7508 9.19858 22.7351 9.18555 22.7221 9.16992C22.7221 9.20119 22.7299 9.22985 22.7299 9.26111C22.7299 12.6742 22.7299 16.0874 22.7299 19.4979C22.7299 19.5292 22.7247 19.5578 22.7221 19.5891C22.7221 19.5891 22.7273 19.5943 22.7299 19.5969C22.7742 19.6152 22.8211 19.6308 22.8654 19.6464C22.9097 19.6647 22.954 19.6803 22.9983 19.7011C23.4257 19.8939 23.8504 20.0894 24.2751 20.2848C24.838 20.5401 25.4008 20.7954 25.9637 21.0534C26.4692 21.2826 26.9721 21.5119 27.4776 21.7412C27.9832 21.9705 28.4861 22.1998 28.9916 22.429C29.4971 22.6583 30 22.8876 30.5056 23.1169C30.774 23.2393 31.0424 23.3618 31.3108 23.4816C31.329 23.4895 31.3498 23.4921 31.3681 23.4973C31.3577 23.4764 31.3498 23.4556 31.3368 23.4374C31.0684 22.9918 30.8 22.5489 30.5342 22.106L30.5394 22.1086Z"
    fill="#343434" />
  <path d="M22.7334 19.5994C22.7334 19.5994 22.7282 19.5942 22.7255 19.5916C22.7047 19.5994 22.6812 19.6046 22.6604 19.615C21.7614 20.0241 20.8624 20.4331 19.9634 20.8422C19.1244 21.2226 18.2853 21.6056 17.4462 21.986C16.4039 22.4602 15.3616 22.9343 14.3193 23.4085C14.2437 23.4424 14.1655 23.4711 14.0874 23.5023C14.0874 23.5049 14.0874 23.5075 14.09 23.5128C14.0926 23.5232 14.0952 23.5336 14.103 23.5388C14.4131 23.7238 14.7258 23.9062 15.0359 24.0912C17.5791 25.5945 20.1224 27.0978 22.6656 28.6012C22.6865 28.6142 22.7099 28.6194 22.7334 28.6299C22.7334 25.6492 22.7334 22.666 22.7334 19.6853C22.7334 19.6567 22.7334 19.628 22.7334 19.602V19.5994Z"
    fill="#393939" />
  <path d="M30.5101 23.1196C30.0045 22.8903 29.5016 22.661 28.9961 22.4317C28.4906 22.2025 27.9876 21.9732 27.4821 21.7439C26.9766 21.5146 26.4737 21.2853 25.9682 21.0561C25.4053 20.8007 24.8425 20.5454 24.2796 20.2874C23.8549 20.0946 23.4275 19.8966 23.0028 19.7038C22.9585 19.683 22.9142 19.6674 22.8699 19.6491C22.8256 19.6309 22.7787 19.6152 22.7344 19.5996C22.7344 19.6283 22.7344 19.6569 22.7344 19.683C22.7344 22.6636 22.7344 25.6469 22.7344 28.6275C22.7396 28.6275 22.7448 28.6301 22.75 28.6275C23.0341 28.4607 23.3181 28.294 23.6021 28.1246C24.006 27.8849 24.4073 27.6426 24.8112 27.4055C25.3141 27.1085 25.817 26.8167 26.3199 26.5197C26.7421 26.2722 27.159 26.0168 27.5811 25.7693C28.1492 25.4332 28.7173 25.1023 29.2853 24.7662C29.6423 24.5552 29.9967 24.3415 30.3511 24.1305C30.6898 23.9299 31.0286 23.7318 31.3674 23.5312C31.3752 23.526 31.3752 23.513 31.3778 23.5026C31.3595 23.4974 31.3387 23.4948 31.3204 23.4869C31.0521 23.3645 30.7837 23.2446 30.5153 23.1222L30.5101 23.1196Z"
    fill="#151515" />
  <path d="M22.7348 30.3806C22.7348 30.3442 22.7348 30.3103 22.7374 30.2738C22.6827 30.2426 22.6254 30.2139 22.5706 30.1826C21.3824 29.4818 20.1942 28.7783 19.0059 28.0748C17.5467 27.2124 16.0848 26.35 14.6256 25.4876C14.4536 25.386 14.279 25.287 14.107 25.188C14.1201 25.214 14.1305 25.2401 14.1461 25.2635C15.0034 26.4725 15.8581 27.6788 16.7154 28.8877C18.6437 31.6052 20.572 34.3227 22.5003 37.0376C22.5732 37.1418 22.6514 37.2408 22.727 37.3424C22.7296 37.3059 22.7348 37.2721 22.7348 37.2356C22.7348 34.9506 22.7348 32.6656 22.7348 30.3806Z"
    fill="#8C8C8C" />
  <path d="M14.0997 25.1855L14.1024 25.1883V25.1855H14.0997Z" fill="#8C8C8C" />
  <path d="M31.3443 25.1959C31.3287 25.2037 31.3105 25.2089 31.2974 25.2194C29.2727 26.4153 27.248 27.6112 25.2234 28.8071C24.3947 29.2969 23.5661 29.7841 22.7374 30.2739C22.7374 30.3104 22.7348 30.3443 22.7348 30.3808C22.7348 32.6657 22.7348 34.9507 22.7348 37.2357C22.7348 37.2722 22.7296 37.306 22.727 37.3425C22.727 37.3451 22.727 37.3477 22.7322 37.3503L22.7505 37.3399C22.7609 37.3243 22.7713 37.3113 22.7817 37.2956C25.2572 33.8069 27.7353 30.3182 30.2108 26.8295C30.5939 26.2902 30.9769 25.7483 31.36 25.209L31.3443 25.1985V25.1959Z"
    fill="#343434" />
  <path d="M14.0997 25.1827V25.1855H14.1024L14.0997 25.1827Z" fill="#8C8C8C" />
  <path d="M31.3421 25.1958L31.3577 25.2062V25.188L31.3421 25.1958Z" fill="#343434" />
</svg>
