<svg width="165" height="47" viewBox="0 0 165 47" fill="none" xmlns="http://www.w3.org/2000/svg">
  <path d="M158.613 32.0765C157.616 31.7804 157.326 31.0061 157.087 30.1805C156.922 30.2147 156.791 30.2033 156.705 30.2602C155.652 30.9378 154.604 31.621 153.568 32.3156C153.215 32.5548 153.13 32.8622 153.34 33.2836C153.79 34.1718 153.927 35.1055 153.602 36.0734C153.317 36.9275 153.073 37.7929 152.759 38.6355C152.555 39.1935 152.065 39.427 151.53 39.1651C150.545 38.6925 149.571 38.1801 148.649 37.5936C147.988 37.1723 147.897 36.415 148.427 35.6749C148.979 34.9005 149.639 34.1945 150.283 33.4885C150.585 33.164 150.966 32.9078 151.279 32.6459C150.716 31.399 150.698 30.3001 151.245 29.2012L151.114 29.1215C150.926 29.2354 150.744 29.3664 150.55 29.4688C150.135 29.6795 149.725 29.9357 149.281 30.0553C148.62 30.2261 148.028 29.5429 148.256 28.8995C148.415 28.444 148.666 28.091 149.19 27.9373C149.879 27.7323 150.545 27.4305 151.211 27.1458C151.78 26.901 152.68 27.0434 153.13 27.4761C153.42 27.7551 153.522 28.2447 153.3 28.6091C153.021 29.0589 152.714 29.4916 152.372 29.8902C151.957 30.3741 151.974 30.8752 152.162 31.4274C152.56 31.547 152.794 31.268 153.061 31.0972C154.183 30.3912 155.293 29.651 156.443 28.9906C157.166 28.5749 157.69 28.0967 157.969 27.2483C158.316 26.2007 158.892 25.2214 159.37 24.2193C159.404 24.151 159.455 24.0884 159.506 24.0257C159.751 23.724 159.973 23.3311 160.434 23.4108C160.884 23.4849 161.152 23.8777 161.249 24.2649C161.391 24.8399 161.733 25.1189 162.245 25.3011C162.427 25.3637 162.592 25.4833 162.752 25.5915C163.372 25.9957 163.401 26.7188 162.752 27.1174C162.017 27.5672 161.226 27.9145 160.463 28.3187C159.979 28.5749 159.501 28.8368 159.034 29.1158C158.869 29.2126 158.726 29.3607 158.607 29.5087C158.277 29.9243 158.356 30.1976 158.84 30.414C159.074 30.5165 159.313 30.6076 159.529 30.7442C160.133 31.12 160.326 31.7918 160.025 32.4295C159.558 33.4202 159.045 34.3938 158.618 35.4073C158.419 35.8798 158.294 36.415 158.277 36.9275C158.254 37.4797 158.613 37.9068 159.142 37.9637C160.07 38.0605 161.015 38.0719 161.949 38.089C162.171 38.089 162.404 37.9694 162.615 37.8726C162.911 37.7303 163.054 37.4854 162.962 37.1495C162.666 36.0108 162.387 34.8664 162.057 33.739C161.995 33.5227 161.71 33.386 161.568 33.1811C161.454 33.0216 161.289 32.7768 161.34 32.6402C161.408 32.458 161.642 32.2758 161.841 32.2188C162.854 31.9399 163.788 32.1278 164.574 32.8395C164.767 33.0103 164.944 33.2665 164.995 33.5113C165.029 33.6821 164.881 33.9668 164.727 34.0807C164.386 34.3369 163.987 34.5191 163.56 34.7582C163.492 34.6159 163.401 34.4109 163.293 34.1775C163.036 34.0636 162.752 33.9383 162.37 33.7675C162.439 34.0123 162.467 34.1547 162.518 34.2856C162.962 35.3731 163.395 36.4663 163.862 37.5481C164.061 38.0092 163.919 38.3566 163.589 38.6526C162.826 39.3245 161.881 39.5294 160.913 39.5237C160.173 39.5237 159.427 39.3928 158.698 39.2675C157.838 39.1195 157.223 38.3623 157.126 37.4342C157.047 36.6769 157.189 35.9539 157.485 35.2535C157.776 34.5703 158.055 33.8757 158.316 33.1811C158.436 32.8565 158.51 32.5149 158.635 32.0822L158.613 32.0765ZM149.412 36.7794C149.793 37.3545 150.351 37.6278 150.955 37.8157C151.541 37.9979 151.877 37.81 152.071 37.2064C152.372 36.2556 152.35 35.2763 152.247 34.3027C152.224 34.1034 152.059 33.9155 151.962 33.722C151.165 34.0977 149.787 35.766 149.412 36.7794ZM160.355 25.7737C159.962 26.2576 159.609 26.7871 159.375 27.4134C160.03 27.1458 160.765 27.1117 161.243 26.5423C161.084 26.1039 160.873 25.8022 160.355 25.7794V25.7737Z"
    fill="#C0966B" />
  <path d="M144.572 26.5655C144.35 26.7136 144.128 26.8616 143.912 27.0039C143.513 26.8673 143.405 26.5485 143.388 26.2068C143.337 24.7607 143.507 23.343 144.054 21.9993C144.253 21.5039 144.635 21.0826 144.971 20.5702C144.549 20.314 144.156 20.0691 143.758 19.8243C143.769 19.7731 143.781 19.7218 143.792 19.6649C143.923 19.6079 144.048 19.5282 144.185 19.5055C144.885 19.3973 145.58 19.3005 146.28 19.2151C146.736 19.1638 146.901 19.2777 147.277 19.8585C147.009 20.536 146.212 20.6385 145.751 21.1338C146.018 21.2762 146.314 21.3559 146.479 21.5495C146.645 21.7431 146.69 22.0505 146.758 22.3124C146.85 22.6654 147.072 22.8362 147.425 22.8704C147.852 22.9159 148.279 22.9786 148.711 23.0241C149.19 23.0697 149.44 23.3657 149.565 23.7928C149.748 24.4247 149.691 25.0453 149.383 25.6204C148.797 26.7193 147.977 27.5961 146.838 28.1484C146.662 28.2338 146.474 28.2964 146.286 28.3362C145.688 28.4672 145.415 28.3021 145.204 27.7327C145.05 27.3285 145.045 26.8331 144.572 26.5541V26.5655ZM145.42 22.1074C145.141 22.3807 144.885 22.5459 144.771 22.7736C144.572 23.1665 144.413 23.5935 144.327 24.0262C144.282 24.2539 144.367 24.5671 144.509 24.7607C144.669 24.9827 145.375 24.9315 145.671 24.7436C145.939 24.5728 146.115 24.3223 146.03 24.0091C145.87 23.417 145.66 22.8419 145.42 22.1017V22.1074ZM145.05 26.6225C145.432 27.4879 145.893 27.6644 146.61 27.2659C146.832 27.1406 147.043 26.9926 147.231 26.8217C147.647 26.4346 147.584 26.0246 147.043 25.8424C146.81 25.7627 146.485 25.7741 146.263 25.8766C145.842 26.0702 145.466 26.3606 145.05 26.6282V26.6225ZM148.034 25.3072C148.336 25.051 148.427 24.681 148.37 24.3166C148.341 24.1287 148.159 23.8725 147.983 23.8098C147.544 23.6504 147.077 23.6447 146.656 23.8725C146.559 24.755 147.049 25.256 148.034 25.3072Z"
    fill="#C0966B" />
  <path d="M148.125 20.5923C148.404 20.7745 148.563 20.9225 148.751 20.9965C148.933 21.0649 149.195 21.1446 149.326 21.0649C149.469 20.9795 149.571 20.7062 149.565 20.5183C149.548 19.6984 148.746 18.7077 147.948 18.4458C147.214 18.2067 146.485 18.1725 145.756 18.4344C145.17 18.6508 144.549 18.8159 144.003 19.112C143.61 19.3283 143.257 19.6756 142.989 20.0457C142.648 20.5183 142.414 21.0649 142.135 21.583C141.981 21.8734 141.782 22.1751 141.441 22.1182C141.196 22.0726 140.991 21.8278 140.843 21.7253C141.241 20.5866 141.623 19.5788 141.947 18.5597C142.198 17.7683 142.716 17.2558 143.433 16.9142C143.735 16.7719 144.054 16.6637 144.35 16.5214C144.555 16.4246 144.743 16.2936 144.914 16.1911C144.931 15.5022 144.361 15.2574 144.048 14.7905C144.196 14.7507 144.316 14.688 144.435 14.6937C145.164 14.7165 145.887 14.8019 146.525 15.2061C146.918 15.4567 147.083 15.8609 146.969 16.2652C146.844 16.7093 146.502 16.789 146.104 16.8174C145.301 16.8744 144.492 16.9028 143.707 17.0338C142.841 17.1818 142.562 17.7227 142.91 18.5084C143.137 18.4173 143.365 18.3262 143.593 18.2351C144.322 17.9448 145.028 17.5861 145.779 17.3697C148.04 16.7206 149.827 17.8081 150.835 19.7496C151.051 20.1653 151.006 20.5809 150.761 20.9852C150.408 21.5545 149.879 21.8791 149.258 22.0385C149.07 22.084 148.785 21.9929 148.632 21.8677C148.29 21.583 148.165 21.173 148.119 20.6037L148.125 20.5923Z"
    fill="#C0966B" />
  <path d="M149.878 22.4998C150.442 22.7333 150.955 22.9496 151.524 23.1888C151.661 23.0749 151.82 22.9382 151.979 22.8073C152.406 22.4486 152.714 22.403 153.141 22.7219C153.75 23.1717 154.2 23.7695 154.473 24.4698C154.604 24.7944 154.644 25.2043 154.325 25.4491C154.04 25.6712 153.687 25.8363 153.289 25.6085C153.158 25.5345 152.987 25.5402 152.845 25.4833C152.378 25.3068 151.854 25.2043 151.456 24.9253C150.937 24.5609 150.493 24.0827 150.066 23.6044C149.844 23.3539 149.673 23.018 149.867 22.4941L149.878 22.4998Z"
    fill="#C0966B" />
  <path d="M65.038 25.3811H61.4397L60.7735 23.7185C60.5173 23.0979 60.3123 22.9271 59.538 22.9271H55.8258V25.3868H52.495V20.5984C52.495 19.38 53.3832 18.4918 54.6016 18.4918H55.8201V19.9209H58.0406C58.9288 19.9209 59.5152 19.6021 59.5152 18.8106C59.5152 18.0192 58.9288 17.7004 58.0406 17.7004H50.9065V14.6885H58.0406C61.1493 14.6885 63.0054 16.2258 63.0054 18.5886C63.0054 19.38 62.7663 19.9494 62.4531 20.3479C62.9769 20.6041 63.2958 21.0596 63.5919 21.7884L65.0323 25.3868L65.038 25.3811Z"
    fill="#131313" />
  <path d="M69.6499 17.6945H66.3191V14.6826H69.6499V17.6945ZM69.6499 25.3809H66.3191V18.4859H69.6499V25.3809Z"
    fill="#131313" />
  <path d="M79.3518 14.6768C81.1738 14.6768 81.4585 15.3258 81.4585 16.6752V19.1633H78.1277V18.3377C78.1277 17.8595 77.826 17.6887 77.3363 17.6887H76.5904C75.3037 17.6887 74.1308 18.4345 74.1308 20.0174C74.1308 21.6002 75.3037 22.3631 77.1086 22.3631H81.4528V25.375H76.5563C72.8327 25.375 70.6406 23.3937 70.6406 20.0174C70.6406 16.9428 72.5252 14.6768 76.5563 14.6768H79.3462H79.3518Z"
    fill="#131313" />
  <path d="M96.5921 22.3688V25.3807H93.7852C92.5668 25.3807 91.6786 24.4925 91.6786 23.2741V21.4009H87.0781V25.3807H83.7474V18.3264C83.7474 17.9164 83.5253 17.6944 83.1154 17.6944H82.1646V14.6825H84.9715C86.1899 14.6825 87.0781 15.5707 87.0781 16.7891V18.389H91.6786V14.6768H95.0093V21.7311C95.0093 22.1411 95.2314 22.3631 95.6413 22.3631H96.5921V22.3688Z"
    fill="#131313" />
  <path d="M52.5006 34.7303C52.5006 33.5118 53.3888 32.6236 54.6073 32.6236H55.8257V36.5067H57.4598C58.9002 36.5067 60.2325 35.9373 60.2325 34.1609C60.2325 32.3845 58.9002 31.8322 57.4598 31.8322H50.9121V28.8203H57.8071C61.6616 28.8203 63.7227 31.0067 63.7227 34.1609C63.7227 37.3152 61.6616 39.5186 57.8071 39.5186H52.4949V34.7303H52.5006Z"
    fill="#131313" />
  <path d="M77.1086 36.5068V39.5188H74.3814C73.4932 39.5188 73.3509 39.2512 73.1459 38.7274L72.7986 37.8562C72.6107 37.3666 72.4513 37.0648 71.5631 37.0648H69.1034V39.5245H65.7727V34.7361C65.7727 33.5177 66.6609 32.6295 67.8793 32.6295H69.0977V34.0586H71.7908C72.679 34.0586 73.2655 33.7398 73.2655 32.9483C73.2655 32.1569 72.679 31.8381 71.7908 31.8381H64.1785V28.8262H71.7908C74.8995 28.8262 76.7556 30.3634 76.7556 32.7263C76.7556 34.2636 76.1521 35.1347 75.486 35.5788L75.7422 36.1652C75.8504 36.4328 75.9642 36.5125 76.2831 36.5125H77.1086V36.5068Z"
    fill="#131313" />
  <path d="M81.9083 32.6236H85.0625V32.4813C85.0625 32.1169 84.9031 31.8322 84.4135 31.8322H78.3896V28.8203H84.7494C87.5108 28.8203 88.3933 29.7085 88.3933 32.6236V35.8747C88.3933 36.2846 88.6154 36.5067 89.0253 36.5067H89.9761V39.5186H87.1692C85.9507 39.5186 85.0625 38.6304 85.0625 37.412V35.4761H81.9083C81.5439 35.4761 81.2592 35.6982 81.2592 35.9829C81.2592 36.2846 81.5439 36.5067 81.9083 36.5067H84.2711V37.207C84.2711 38.414 83.827 39.5243 82.1133 39.5243H81.2877C79.3689 39.5243 77.8943 38.192 77.8943 36.1024C77.8943 34.0129 78.9078 32.6293 81.9083 32.6293V32.6236Z"
    fill="#131313" />
  <path d="M96.6033 28.8203H100.395V31.8322H97.1613C95.3564 31.8322 94.1835 32.4813 94.1835 34.1609C94.1835 35.8405 95.3564 36.5067 97.1613 36.5067H99.6665V36.3643C99.6665 36 99.3818 35.7153 99.0174 35.7153H96.7514V32.8628H100.891C102.109 32.8628 102.997 33.751 102.997 34.9694V39.5186H96.609C92.8854 39.5186 90.6934 37.5372 90.6934 34.1609C90.6934 30.7846 92.8797 28.8203 96.609 28.8203H96.6033Z"
    fill="#131313" />
  <path d="M104.13 33.1816C104.13 30.6309 105.491 28.8203 108.759 28.8203H111.521C114.789 28.8203 116.15 30.6252 116.15 33.1816V35.163C116.15 37.7137 114.789 39.5243 111.521 39.5243H108.759C105.491 39.5243 104.13 37.7194 104.13 35.163V33.1816ZM107.461 34.7189C107.461 35.795 108.013 36.5124 109.397 36.5124H110.889C112.267 36.5124 112.825 35.8007 112.825 34.7189V33.6257C112.825 32.5496 112.272 31.8322 110.889 31.8322H109.397C108.019 31.8322 107.461 32.5439 107.461 33.6257V34.7189Z"
    fill="#131313" />
  <path d="M128.505 39.5357C127.964 39.5357 127.457 39.4275 127.03 39.0574L122.037 34.7474V39.5186H118.706V32.4642C118.706 32.0543 118.484 31.8322 118.074 31.8322H117.123V28.8203H119.327C119.868 28.8203 120.374 28.9285 120.801 29.2986L125.795 33.6086V28.8374H129.125V35.8918C129.125 36.3017 129.347 36.5238 129.757 36.5238H130.708V39.5357H128.505Z"
    fill="#131313" />
  <path fill-rule="evenodd"
    clip-rule="evenodd"
    d="M34.4634 24.9939C35.568 22.5798 33.4158 21.3329 33.4158 21.3329L3.09163 4.70188C-0.700314 13.0202 11.2221 19.3914 11.2221 19.3914L5.71638 19.8924C7.51556 22.8986 5.23812 25.5405 5.23812 25.5405L0 27.909C7.04869 38.408 17.0125 32.8169 17.0125 32.8169L19.9162 35.305L16.705 40.7253C21.4478 42.9003 24.3117 39.9852 24.3117 39.9852C24.1466 40.9815 21.7325 44.6368 21.7325 44.6368C28.5762 47.2901 31.9184 40.6228 31.9184 40.6228C31.9184 40.6228 22.9395 33.3692 22.1481 32.6347C21.3567 31.9002 21.8179 31.7351 21.8179 31.7351C21.8179 31.7351 24.7957 31.1316 26.0539 30.9551C27.3122 30.7786 28.4566 31.217 28.4566 31.217C28.4566 31.217 33.3759 34.6161 35.0328 36.1249C36.7124 37.6394 38.2041 36.438 38.2041 36.438L40.9427 30.2548L34.4634 24.9882V24.9939ZM42.7248 46.2766C42.7248 46.2766 40.8687 44.2041 36.9515 42.6953C33.0286 41.1922 31.1383 35.7776 31.1383 35.7776C34.1901 38.9546 37.6518 39.8087 40.1513 41.215C42.6451 42.6156 42.7305 46.2766 42.7305 46.2766H42.7248ZM14.308 6.49537C14.5358 2.79452 17.8096 0.5 17.8096 0.5L26.4639 13.5213L14.308 6.48967V6.49537ZM32.0038 24.2822C30.3583 26.6735 27.1927 26.1782 25.8262 24.9882C24.4654 23.7812 24.0213 19.807 24.0213 19.807L32.0038 24.2822Z"
    fill="url(#paint0_linear_68_1829)" />
  <path fill-rule="evenodd"
    clip-rule="evenodd"
    d="M19.9163 35.3055L15.4639 37.5374L17.0125 32.8174"
    fill="url(#paint1_radial_68_1829)" />
  <path d="M137.518 14.6768H136.248V39.535H137.518V14.6768Z" fill="#C0966B" />
  <defs>
    <linearGradient id="paint0_linear_68_1829"
      x1="-75.1158"
      y1="-2.47776"
      x2="49"
      y2="37.5"
      gradientUnits="userSpaceOnUse">
      <stop offset="0.499679" stop-color="#C3A075" />
      <stop offset="1" stop-color="#B98356" />
    </linearGradient>
    <radialGradient id="paint1_radial_68_1829"
      cx="0"
      cy="0"
      r="1"
      gradientUnits="userSpaceOnUse"
      gradientTransform="translate(-5.53415 -2.4773) scale(69.5816 69.5816)">
      <stop stop-color="#B98356" />
      <stop offset="1" stop-color="#C3A075" />
    </radialGradient>
  </defs>
</svg>
