<svg width="104" height="105" viewBox="0 0 104 105" fill="none" xmlns="http://www.w3.org/2000/svg">
  <path d="M0 0.5V38.3182H9.45455V47.7727H18.9091V38.3182H37.8182V0.5H0ZM37.8182 38.3182V47.7727H47.2727V57.2273H28.3636V66.6818H0V104.5H37.8182V66.6818H66.1818V57.2273H56.7273V47.7727H75.6364V38.3182H85.0909V47.7727H94.5454V38.3182H104V0.5H66.1818V38.3182H37.8182ZM94.5454 47.7727V57.2273H104V47.7727H94.5454ZM94.5454 57.2273H85.0909V66.6818H94.5454V57.2273ZM94.5454 66.6818V76.1364H104V66.6818H94.5454ZM94.5454 76.1364H85.0909V66.6818H75.6364V76.1364H52V104.5H61.4545V85.5909H80.3636V95.0454H89.8182V85.5909H94.5454V76.1364ZM80.3636 95.0454H70.9091V104.5H80.3636V95.0454ZM85.0909 57.2273V47.7727H75.6364V57.2273H85.0909ZM28.3636 57.2273V47.7727H18.9091V57.2273H28.3636ZM9.45455 47.7727H0V57.2273H9.45455V47.7727ZM47.2727 0.5V19.4091H42.5455V28.8636H47.2727V33.5909H56.7273V19.4091H61.4545V9.95455H56.7273V0.5H47.2727ZM9.45455 9.95455H28.3636V28.8636H9.45455V9.95455ZM75.6364 9.95455H94.5454V28.8636H75.6364V9.95455ZM14.1818 14.6818V24.1364H23.6364V14.6818H14.1818ZM80.3636 14.6818V24.1364H89.8182V14.6818H80.3636ZM9.45455 76.1364H28.3636V95.0454H9.45455V76.1364ZM14.1818 80.8636V90.3182H23.6364V80.8636H14.1818ZM94.5454 95.0454V104.5H104V95.0454H94.5454Z"
    fill="black" />
</svg>
