<svg xmlns="http://www.w3.org/2000/svg" width="25" height="24" fill="none"><path fill="#FF060A" d="M12.8 23.498c6.63 0 12-5.15 12-11.5C24.8 5.65 19.43.5 12.8.5S.8 5.65.8 11.999c0 6.35 5.375 11.499 12 11.499Z"/><path fill="#fff" d="M19.55 9.935c-.663-.589-1.582-1.486-2.327-2.12l-.046-.028a.967.967 0 0 0-.244-.133C15.131 7.332 6.745 5.829 6.584 5.847a.309.309 0 0 0-.129.046l-.041.032a.463.463 0 0 0-.115.18l-.01.027v.175c.943 2.52 4.672 10.768 5.408 12.708.046.133.128.382.285.395h.037c.082 0 .44-.455.44-.455s6.405-7.439 7.054-8.23c.082-.096.156-.202.22-.312a.448.448 0 0 0-.023-.258.583.583 0 0 0-.16-.22Zm-5.453.868 2.73-2.17 1.605 1.417-4.335.753Zm-1.062-.142L8.33 6.964l7.614 1.348-2.91 2.349Zm.423.966 4.813-.745-5.503 6.358.69-5.613Zm-5.766-4.29 4.952 4.023-.717 5.885-4.235-9.908Z"/></svg>
