<svg width="38" height="37" viewBox="0 0 38 37" fill="none" xmlns="http://www.w3.org/2000/svg">
  <path d="M19.127 36.9968C29.2062 36.9968 37.377 28.8271 37.377 18.7492C37.377 8.67123 29.2062 0.501465 19.127 0.501465C9.04775 0.501465 0.876923 8.67123 0.876923 18.7492C0.876923 28.8271 9.04775 36.9968 19.127 36.9968Z"
    fill="#2775CA" />
  <path d="M20.3161 27.2602C20.3211 26.8551 20.3161 26.4474 20.3161 26.0422C20.3161 25.5788 20.3161 25.5813 20.7567 25.4724C21.9445 25.1762 22.9348 24.5887 23.6034 23.5352C24.1124 22.7325 24.2543 21.8513 24.1631 20.9118C24.0567 19.8229 23.611 18.9493 22.6537 18.377C21.6811 17.7945 20.5896 17.6223 19.498 17.4299C18.8623 17.3159 18.2241 17.1766 17.6138 16.9766C16.9021 16.7436 16.6336 16.1789 16.659 15.4522C16.6817 14.7735 17.0414 14.2063 17.7227 14.0113C18.1988 13.8745 18.718 13.8442 19.2194 13.8366C20.349 13.8214 21.0885 14.4468 21.3291 15.3357C21.4127 15.6395 21.6381 15.7966 21.9698 15.789C22.3649 15.7788 22.7626 15.794 23.1576 15.7839C23.5451 15.7738 23.8111 15.4522 23.7022 15.0799C23.5882 14.6823 23.459 14.2797 23.264 13.9176C22.6891 12.8566 21.7369 12.2919 20.5896 12.031C20.3743 11.9829 20.3085 11.8867 20.3135 11.679C20.3237 11.1827 20.3237 10.6839 20.3135 10.185C20.3085 9.81528 20.0679 9.57724 19.7006 9.57218C19.3359 9.56458 18.9687 9.56711 18.604 9.57218C18.1735 9.57471 17.9481 9.80008 17.943 10.228C17.9379 10.6864 17.9329 11.1422 17.943 11.598C17.9481 11.8259 17.867 11.9171 17.6416 11.9576C16.9147 12.0918 16.2411 12.3678 15.6484 12.8186C14.4227 13.7555 14.0579 15.0191 14.2631 16.4929C14.4302 17.7008 15.1166 18.539 16.2233 18.967C16.9932 19.2633 17.8189 19.4177 18.6217 19.6203C19.3182 19.7976 20.0273 19.9242 20.7137 20.1293C21.1797 20.2686 21.5089 20.6054 21.6355 21.1042C21.8863 22.0868 21.4507 22.9857 20.5263 23.4137C19.9792 23.6669 19.4068 23.6745 18.8269 23.6517C17.5074 23.6036 16.6134 22.968 16.393 21.75C16.3322 21.4081 16.0992 21.2233 15.7801 21.2157C15.3344 21.2055 14.8861 21.203 14.4404 21.2157C14.0934 21.2283 13.8376 21.517 13.8883 21.8487C14.0225 22.697 14.334 23.4669 14.919 24.1151C15.6636 24.9407 16.6286 25.3281 17.6897 25.518C17.9101 25.556 17.9531 25.6497 17.9455 25.8371C17.9455 25.8675 17.9455 25.8979 17.943 25.9282C17.9379 26.141 17.943 26.3537 17.943 26.5689C17.943 26.7918 17.943 27.0171 17.943 27.24C17.9455 27.6654 18.1304 27.906 18.5432 27.9389C18.9358 27.9693 19.3359 27.9693 19.7285 27.9389C20.1236 27.9085 20.311 27.6654 20.3161 27.2628V27.2602Z"
    fill="white" />
  <path d="M15.744 30.5169C15.744 29.7622 15.6326 29.6052 14.926 29.3191C14.0396 28.957 13.1886 28.5239 12.4288 27.9365C8.80971 25.1357 7.26229 21.4437 7.90811 16.9235C8.31839 14.0494 9.76197 11.6943 12.0287 9.86096C12.9607 9.10887 13.9915 8.52897 15.1109 8.10608C15.4781 7.9668 15.7162 7.72371 15.7364 7.32614C15.7567 6.9311 15.7516 6.53353 15.7364 6.13849C15.7263 5.80676 15.4984 5.59911 15.1615 5.60924C15.0121 5.61431 14.8601 5.64723 14.7183 5.69534C12.4567 6.47275 10.504 7.7237 8.89835 9.50644C6.64432 12.0109 5.48186 14.9635 5.3299 18.3163C5.27418 19.5672 5.42359 20.8081 5.72751 22.0236C6.44677 24.8977 7.92836 27.3085 10.1799 29.233C11.5525 30.408 13.105 31.274 14.8272 31.8311C15.4199 32.0236 15.739 31.7881 15.7415 31.155C15.7415 31.0132 15.7415 30.8714 15.7415 30.7296C15.7415 30.6587 15.7415 30.5878 15.7415 30.5169H15.744Z"
    fill="white" />
  <path d="M23.2113 8.12899C24.6042 8.66077 25.8629 9.42299 26.9241 10.4638C29.8138 13.3025 31.027 16.7438 30.3102 20.7398C29.5884 24.7611 27.2508 27.5821 23.5178 29.2382C23.2848 29.342 23.1075 29.418 22.9707 29.4914C22.953 29.5015 22.9352 29.5117 22.9175 29.5193C22.7909 29.5902 22.7048 29.6585 22.6465 29.7446C22.6389 29.7573 22.6313 29.7674 22.6237 29.7801C22.6212 29.7851 22.6161 29.7927 22.6136 29.7978C22.606 29.8105 22.6009 29.8231 22.5959 29.8358C22.5883 29.8561 22.5807 29.8763 22.5731 29.8991C22.568 29.9143 22.5655 29.9295 22.5604 29.9447C22.5604 29.9523 22.5579 29.9599 22.5553 29.97C22.5528 29.9852 22.5478 30.0029 22.5452 30.0207C22.5427 30.0384 22.5401 30.0561 22.5376 30.0764C22.5174 30.2359 22.5174 30.4461 22.5174 30.7322C22.5174 30.7778 22.5174 30.8234 22.5199 30.869C22.5199 30.8842 22.5199 30.8994 22.5199 30.9145C22.5199 30.9449 22.5199 30.9753 22.5199 31.0057C22.5199 31.0361 22.5174 31.0665 22.5123 31.0969C22.4287 31.7173 22.8542 32.0338 23.4899 31.8211C28.9249 30.0004 32.696 25.0548 32.9264 19.1951C32.9897 17.5694 32.7517 15.9766 32.2325 14.4344C31.2296 11.4438 29.4162 9.0634 26.8026 7.29586C25.754 6.58682 24.622 6.04491 23.4164 5.65494C22.8517 5.47261 22.5174 5.71571 22.5148 6.29814C22.5148 6.57163 22.5148 6.84765 22.5148 7.12114C22.5148 7.6985 22.6744 7.92134 23.2088 8.12646L23.2113 8.12899Z"
    fill="white" />
</svg>
