<svg width="45" height="46" viewBox="0 0 45 46" fill="none" xmlns="http://www.w3.org/2000/svg">
  <path d="M40.4195 27.0985C42.6744 17.0938 36.391 7.1556 26.3849 4.90093C16.3789 2.64627 6.43941 8.92894 4.18446 18.9337C1.9295 28.9384 8.21299 38.8766 18.219 41.1313C28.225 43.3859 38.1645 37.1033 40.4195 27.0985Z"
    fill="#50AF95" />
  <path d="M24.6987 19.2622V16.425H31.4718V11.8793H13.1164V16.4276H19.8895V19.2648C14.3895 19.5173 10.2479 20.6177 10.2479 21.9345C10.2479 23.2513 14.3895 24.3517 19.8895 24.6042V34.1492H24.6987V24.6042C30.1986 24.3517 34.3403 23.2513 34.3403 21.9345C34.3403 20.6177 30.1986 19.5173 24.6987 19.2648V19.2622ZM24.6987 23.7977C23.9255 23.8312 23.1214 23.8492 22.2941 23.8492C21.4668 23.8492 20.6626 23.8312 19.8895 23.7977C14.9823 23.5838 11.3174 22.7256 11.3174 21.7C11.3174 20.6744 14.9849 19.8163 19.8895 19.6024V22.9859C20.6626 23.0143 21.4668 23.0271 22.2941 23.0271C23.1214 23.0271 23.9255 23.0117 24.6987 22.9859V19.6024C29.6058 19.8163 33.2707 20.6744 33.2707 21.7C33.2707 22.7256 29.6032 23.5838 24.6987 23.7977Z"
    fill="white" />
</svg>
